{
.appVersion = "3100";
.formatVersion = 3;
DisplayStrings = (
ABCDEFGHIJKLMNOPQRSTUVWXYZ
);
customParameters = (
{
name = vendorID;
value = PfEd;
},
{
name = panose;
value = (
2,
0,
5,
3,
0,
0,
0,
0,
0,
0
);
},
{
name = unicodeRanges;
value = (
0
);
},
{
name = codePageRanges;
value = (
"1252"
);
},
{
name = fsType;
value = (
);
},
{
name = glyphOrder;
value = (
.notdef,
.null,
CR,
"0",
"1",
"2",
"3",
"4",
"5",
"6",
"7",
"8",
"9",
A,
B,
C,
D,
E,
F,
G,
H,
I,
J,
K,
L,
M,
N,
O,
P,
Q,
R,
S,
T,
U,
V,
W,
X,
Y,
Z,
_,
"A-lower",
"B-lower",
"C-lower",
"D-lower",
"E-lower",
"F-lower",
"G-lower",
"H-lower",
"I-lower",
"J-lower",
"K-lower",
"L-lower",
"M-lower",
"N-lower",
"O-lower",
"P-lower",
"Q-lower",
"R-lower",
"S-lower",
"T-lower",
"U-lower",
"V-lower",
"W-lower",
"X-lower",
"Y-lower",
"Z-lower"
);
}
);
date = "2021-10-21 08:50:59 +0000";
familyName = "Harmony Grotesk";
fontMaster = (
{
customParameters = (
{
name = typoAscender;
value = 448;
},
{
name = typoDescender;
value = -64;
},
{
name = typoLineGap;
value = 46;
},
{
name = winAscent;
value = 413;
},
{
name = winDescent;
value = 58;
},
{
name = hheaAscender;
value = 413;
},
{
name = hheaDescender;
value = -58;
},
{
name = strikeoutPosition;
value = 132;
},
{
name = strikeoutSize;
value = 25;
},
{
name = "CVT Table";
value = "(\012    17,\012    324\012)";
}
);
id = m01;
metricValues = (
{
pos = 448;
},
{
pos = 348;
},
{
pos = 325;
},
{
},
{
pos = -64;
},
{
}
);
name = grotesk;
}
);
glyphs = (
{
glyphname = .notdef;
layers = (
{
layerId = m01;
shapes = (
{
closed = 1;
nodes = (
(153,341,l),
(17,341,l),
(17,0,l),
(153,0,l)
);
},
{
closed = 1;
nodes = (
(136,324,l),
(136,17,l),
(34,17,l),
(34,324,l)
);
}
);
userData = {
assembly = "PUSHB[ ]	/* 2 values pushed */
1 0 
MDAP[1]	/* MoveDirectAbsPt */
ALIGNRP[ ]	/* AlignRelativePt */
PUSHB[ ]	/* 3 values pushed */
7 4 0 
MIRP[01101]	/* MoveIndirectRelPt */
SHP[0]	/* ShiftPointByLastPoint */
PUSHB[ ]	/* 2 values pushed */
6 5 
MDRP[11100]	/* MoveDirectRelPt */
ALIGNRP[ ]	/* AlignRelativePt */
PUSHB[ ]	/* 3 values pushed */
3 2 0 
MIRP[01101]	/* MoveIndirectRelPt */
SHP[0]	/* ShiftPointByLastPoint */
SVTCA[0]	/* SetFreedomAndProjectionVectorToAxis */
PUSHB[ ]	/* 2 values pushed */
3 0 
MDAP[1]	/* MoveDirectAbsPt */
ALIGNRP[ ]	/* AlignRelativePt */
PUSHB[ ]	/* 3 values pushed */
5 4 0 
MIRP[01101]	/* MoveIndirectRelPt */
SHP[0]	/* ShiftPointByLastPoint */
PUSHB[ ]	/* 3 values pushed */
7 6 1 
MIRP[11100]	/* MoveIndirectRelPt */
ALIGNRP[ ]	/* AlignRelativePt */
PUSHB[ ]	/* 3 values pushed */
1 2 0 
MIRP[01101]	/* MoveIndirectRelPt */
SHP[0]	/* ShiftPointByLastPoint */";
};
width = 187;
}
);
note = ".notdef";
},
{
glyphname = A;
layers = (
{
layerId = m01;
shapes = (
{
closed = 1;
nodes = (
(258,344,o),
(255,345,o),
(252,346,o),
(251,346,q),
(251,349,l),
(252,352,l),
(254,351,o),
(257,351,o),
(260,350,o),
(261,349,q),
(260,346,l),
(259,343,l)
);
},
{
closed = 1;
nodes = (
(250,346,o),
(208,346,o),
(198,345,o),
(168,343,o),
(148,336,o),
(138,331,q),
(136,334,l),
(135,337,l),
(143,341,o),
(159,346,o),
(177,350,o),
(191,352,o),
(211,352,o),
(224,352,o),
(246,352,o),
(251,352,q),
(251,349,l),
(251,346,l)
);
},
{
closed = 1;
nodes = (
(111,317,o),
(45,252,o),
(30,226,qs),
(26,219,o),
(14,190,o),
(10,182,q),
(7,184,l),
(5,185,l),
(8,192,o),
(20,222,o),
(24,229,qs),
(40,256,o),
(107,322,o),
(135,337,q),
(136,334,l),
(138,331,l)
);
},
{
closed = 1;
nodes = (
(7,167,o),
(7,128,qs),
(7,110,o),
(10,107,qs),
(15,101,o),
(40,99,o),
(47,101,qs),
(55,103,o),
(78,117,q),
(79,115,l),
(81,112,l),
(58,98,o),
(49,95,qs),
(19,87,o),
(5,103,q),
(0,107,o),
(0,128,qs),
(0,168,o),
(4,185,q),
(7,184,l),
(10,183,l)
);
},
{
closed = 1;
nodes = (
(132,152,o),
(193,232,qs),
(199,239,o),
(213,260,o),
(227,280,o),
(233,288,q),
(235,286,l),
(238,284,l),
(230,274,o),
(205,236,o),
(198,228,qs),
(136,147,o),
(81,112,q),
(79,115,l),
(77,117,l)
);
},
{
closed = 1;
nodes = (
(234,289,o),
(237,293,o),
(239,296,o),
(242,299,o),
(243,301,qs),
(244,303,o),
(249,309,o),
(252,314,o),
(255,319,o),
(256,326,o),
(258,333,o),
(260,337,q),
(261,338,o),
(263,341,o),
(266,345,o),
(266,346,qs),
(266,349,l),
(266,352,l),
(273,352,o),
(273,346,qs),
(273,344,o),
(265,333,qs),
(263,331,o),
(261,318,o),
(259,314,qs),
(257,310,o),
(248,298,o),
(248,297,q),
(246,295,o),
(243,291,o),
(239,285,o),
(238,284,q),
(235,286,l),
(233,287,l)
);
},
{
closed = 1;
nodes = (
(262,344,o),
(253,337,o),
(247,331,o),
(238,318,o),
(235,313,o),
(225,297,o),
(224,295,qs),
(211,273,o),
(180,230,q),
(177,232,l),
(175,234,l),
(206,276,o),
(219,298,qs),
(220,300,o),
(229,316,o),
(233,322,o),
(242,335,o),
(249,342,o),
(259,349,o),
(265,352,q),
(266,349,l),
(267,346,l)
);
},
{
closed = 1;
nodes = (
(164,202,o),
(148,171,o),
(132,119,o),
(132,97,q),
(129,97,l),
(126,97,l),
(126,120,o),
(143,174,o),
(158,205,o),
(174,234,q),
(177,232,l),
(180,231,l)
);
},
{
closed = 1;
nodes = (
(135,72,o),
(135,71,q),
(140,59,o),
(160,52,o),
(182,58,o),
(193,66,q),
(194,64,l),
(196,61,l),
(185,53,o),
(161,45,o),
(135,53,o),
(130,69,q),
(129,70,o),
(126,97,q),
(129,97,l),
(132,98,l)
);
},
{
closed = 1;
nodes = (
(220,85,o),
(248,118,q),
(250,116,l),
(253,114,l),
(224,80,o),
(196,61,q),
(194,64,l),
(193,66,l)
);
}
);
width = 273;
}
);
note = A;
unicode = 65;
},
{
glyphname = B;
layers = (
{
layerId = m01;
shapes = (
{
closed = 1;
nodes = (
(21,356,l),
(18,356,l),
(15,357,l),
(17,367,l),
(20,366,l),
(23,365,l)
);
},
{
closed = 1;
nodes = (
(21,351,o),
(23,338,o),
(26,325,o),
(26,319,qs),
(26,303,o),
(27,237,o),
(29,185,o),
(32,162,q),
(29,162,l),
(26,161,l),
(24,180,o),
(21,223,o),
(21,256,o),
(20,304,o),
(20,319,qs),
(20,324,o),
(15,349,o),
(15,356,q),
(18,356,l),
(21,356,l)
);
},
{
closed = 1;
nodes = (
(36,113,o),
(36,44,q),
(33,44,l),
(30,44,l),
(30,113,o),
(26,161,q),
(29,162,l),
(32,162,l)
);
},
{
closed = 1;
nodes = (
(21,46,o),
(21,82,qs),
(21,115,o),
(33,162,o),
(49,190,q),
(51,189,l),
(54,187,l),
(44,168,o),
(32,137,o),
(27,104,o),
(27,82,qs),
(27,50,o),
(34,47,q),
(33,44,l),
(31,41,l)
);
},
{
closed = 1;
nodes = (
(58,204,o),
(58,205,q),
(64,212,o),
(85,227,qs),
(103,240,o),
(112,245,qs),
(156,271,o),
(176,238,q),
(173,236,l),
(170,234,l),
(154,262,o),
(115,240,qs),
(106,235,o),
(89,222,qs),
(68,207,o),
(62,201,q),
(61,199,o),
(58,195,o),
(55,189,o),
(54,187,q),
(51,189,l),
(49,191,l)
);
},
{
closed = 1;
nodes = (
(196,156,o),
(153,76,q),
(150,77,l),
(148,79,l),
(190,156,o),
(170,235,q),
(173,236,l),
(176,237,l)
);
},
{
closed = 1;
nodes = (
(137,52,o),
(78,5,o),
(53,1,q),
(53,1,o),
(25,1,q),
(25,4,l),
(25,7,l),
(28,7,o),
(41,7,o),
(47,7,o),
(52,7,q),
(75,11,o),
(133,57,o),
(148,79,q),
(150,77,l),
(153,76,l)
);
},
{
closed = 1;
nodes = (
(18,3,o),
(14,7,qs),
(2,16,o),
(-2,44,o),
(8,57,qs),
(11,61,o),
(22,67,o),
(28,70,o),
(43,74,o),
(44,74,q),
(45,71,l),
(46,68,l),
(45,68,o),
(29,64,o),
(24,62,o),
(16,56,o),
(13,53,qs),
(5,43,o),
(8,19,o),
(17,12,qs),
(21,9,o),
(26,7,q),
(25,4,l),
(24,1,l)
);
},
{
closed = 1;
nodes = (
(84,77,o),
(104,68,q),
(102,65,l),
(101,62,l),
(83,71,o),
(45,68,q),
(45,71,l),
(45,74,l)
);
}
);
width = 182;
}
);
note = B;
unicode = 66;
},
{
glyphname = C;
layers = (
{
layerId = m01;
shapes = (
{
closed = 1;
nodes = (
(167,271,o),
(163,277,o),
(162,279,q),
(165,281,l),
(168,282,l),
(168,281,o),
(170,277,o),
(172,274,o),
(173,272,q),
(170,271,l),
(167,269,l)
);
},
{
closed = 1;
nodes = (
(162,285,o),
(155,294,qs),
(143,310,o),
(114,318,o),
(94,314,q),
(93,317,l),
(93,320,l),
(114,325,o),
(147,315,o),
(160,297,qs),
(168,287,o),
(168,281,q),
(165,281,l),
(162,281,l)
);
},
{
closed = 1;
nodes = (
(49,297,o),
(7,251,o),
(7,207,q),
(4,207,l),
(1,207,l),
(1,253,o),
(46,303,o),
(92,320,q),
(93,317,l),
(94,314,l)
);
},
{
closed = 1;
nodes = (
(7,205,o),
(6,195,o),
(6,191,o),
(7,187,qs),
(11,171,o),
(42,127,o),
(55,122,qs),
(67,118,o),
(92,118,q),
(92,115,l),
(92,111,l),
(66,111,o),
(52,117,qs),
(42,120,o),
(20,146,o),
(4,175,o),
(1,186,q),
(1,186,o),
(1,207,q),
(4,207,l),
(7,207,l)
);
},
{
closed = 1;
nodes = (
(110,118,o),
(113,119,qs),
(126,123,o),
(164,160,o),
(178,176,q),
(180,174,l),
(182,172,l),
(143,123,o),
(115,113,qs),
(111,111,o),
(92,111,q),
(92,115,l),
(92,118,l)
);
}
);
width = 182;
}
);
note = C;
unicode = 67;
},
{
glyphname = D;
layers = (
{
layerId = m01;
shapes = (
{
closed = 1;
nodes = (
(162,175,o),
(163,179,q),
(166,178,l),
(169,177,l),
(167,173,o),
(166,169,q),
(163,170,l),
(160,171,l)
);
},
{
closed = 1;
nodes = (
(163,184,o),
(164,200,o),
(164,209,o),
(163,220,o),
(159,231,o),
(154,238,qs),
(146,251,o),
(129,253,q),
(130,256,l),
(130,259,l),
(150,256,o),
(160,241,qs),
(165,232,o),
(170,215,o),
(170,205,o),
(169,184,o),
(169,178,q),
(166,178,l),
(163,178,l)
);
},
{
closed = 1;
nodes = (
(103,256,o),
(92,254,qs),
(74,251,o),
(40,229,o),
(16,197,o),
(10,180,q),
(7,181,l),
(4,183,l),
(15,211,o),
(63,256,o),
(91,260,qs),
(103,262,o),
(130,259,q),
(130,256,l),
(129,253,l)
);
},
{
closed = 1;
nodes = (
(7,168,o),
(6,161,qs),
(5,148,o),
(14,131,o),
(30,126,o),
(51,125,o),
(64,128,q),
(64,124,l),
(64,121,l),
(48,120,o),
(18,120,o),
(-1,141,o),
(0,162,qs),
(0,165,o),
(1,169,o),
(2,173,o),
(2,175,o),
(4,181,o),
(4,182,q),
(7,181,l),
(10,181,l)
);
},
{
closed = 1;
nodes = (
(86,138,o),
(94,145,qs),
(124,174,o),
(170,281,q),
(173,279,l),
(176,278,l),
(130,170,o),
(98,141,qs),
(89,132,o),
(65,122,q),
(64,124,l),
(63,127,l)
);
},
{
closed = 1;
nodes = (
(174,288,o),
(186,317,o),
(189,324,qs),
(192,330,o),
(201,346,o),
(210,362,o),
(213,368,qs),
(214,370,o),
(219,384,o),
(224,394,o),
(228,398,q),
(230,396,l),
(232,394,l),
(229,391,o),
(225,381,o),
(220,368,o),
(218,365,qs),
(215,358,o),
(198,329,o),
(195,321,q),
(191,315,o),
(180,286,o),
(176,278,q),
(173,279,l),
(170,281,l)
);
},
{
closed = 1;
nodes = (
(233,387,o),
(227,369,o),
(220,357,o),
(208,338,o),
(206,334,qs),
(201,326,o),
(158,254,o),
(147,233,q),
(145,235,l),
(142,236,l),
(152,257,o),
(196,330,o),
(200,337,qs),
(203,341,o),
(215,361,o),
(221,372,o),
(227,388,o),
(227,396,q),
(230,396,l),
(233,396,l)
);
},
{
closed = 1;
nodes = (
(124,178,o),
(119,149,qs),
(113,115,o),
(118,103,qs),
(119,101,o),
(127,90,q),
(125,88,l),
(122,87,l),
(113,98,o),
(112,101,qs),
(107,114,o),
(113,150,qs),
(118,179,o),
(142,236,q),
(145,235,l),
(147,234,l)
);
},
{
closed = 1;
nodes = (
(132,88,o),
(147,88,o),
(160,91,o),
(178,100,o),
(189,106,o),
(209,120,o),
(217,127,o),
(235,142,o),
(237,143,q),
(239,141,l),
(241,138,l),
(239,136,o),
(219,120,o),
(207,111,o),
(186,96,o),
(169,88,o),
(149,81,o),
(131,82,o),
(123,86,q),
(125,88,l),
(126,91,l)
);
}
);
width = 241;
}
);
note = D;
unicode = 68;
},
{
glyphname = E;
layers = (
{
layerId = m01;
shapes = (
{
closed = 1;
nodes = (
(13,204,l),
(13,201,l),
(13,198,l),
(9,198,l),
(9,201,l),
(9,204,l)
);
},
{
closed = 1;
nodes = (
(47,204,o),
(128,249,o),
(143,278,q),
(146,277,l),
(148,276,l),
(133,245,o),
(48,198,o),
(13,198,q),
(13,201,l),
(13,204,l)
);
},
{
closed = 1;
nodes = (
(146,297,o),
(145,298,qs),
(141,301,o),
(122,300,qs),
(118,300,o),
(109,298,o),
(102,296,o),
(93,292,o),
(87,289,o),
(78,283,o),
(73,280,o),
(63,273,o),
(61,272,q),
(59,274,l),
(57,277,l),
(59,278,o),
(75,288,o),
(80,292,o),
(94,299,o),
(103,302,o),
(116,306,o),
(122,306,qs),
(144,307,o),
(149,303,qs),
(151,301,o),
(152,292,o),
(151,285,o),
(149,277,o),
(149,276,q),
(146,277,l),
(143,277,l)
);
},
{
closed = 1;
nodes = (
(30,247,o),
(6,206,o),
(6,170,q),
(3,170,l),
(0,170,l),
(0,207,o),
(25,252,o),
(57,277,q),
(59,274,l),
(61,272,l)
);
},
{
closed = 1;
nodes = (
(16,155,o),
(48,155,qs),
(87,155,o),
(93,156,qs),
(105,158,o),
(131,171,o),
(145,180,o),
(177,204,o),
(181,206,q),
(181,206,o),
(218,231,q),
(220,229,l),
(222,226,l),
(218,223,o),
(202,213,o),
(190,205,o),
(185,201,qs),
(180,198,o),
(163,185,o),
(151,177,o),
(134,166,o),
(120,158,o),
(103,151,o),
(94,150,qs),
(87,149,o),
(48,149,qs),
(13,149,o),
(0,169,q),
(3,170,l),
(6,172,l)
);
},
{
closed = 1;
nodes = (
(221,233,o),
(247,247,o),
(264,258,o),
(268,264,q),
(271,262,l),
(273,260,l),
(270,255,o),
(255,244,o),
(242,237,o),
(225,228,o),
(222,226,q),
(220,229,l),
(218,231,l)
);
}
);
width = 273;
}
);
note = E;
unicode = 69;
},
{
glyphname = F;
layers = (
{
layerId = m01;
shapes = (
{
closed = 1;
nodes = (
(82,224,o),
(84,224,q),
(83,221,l),
(83,218,l),
(78,219,o),
(73,219,q),
(73,222,l),
(74,225,l)
);
},
{
closed = 1;
nodes = (
(88,224,o),
(101,224,o),
(110,224,o),
(122,224,o),
(126,224,qs),
(165,228,o),
(257,275,o),
(283,304,q),
(285,302,l),
(288,300,l),
(261,270,o),
(167,222,o),
(127,218,q),
(127,218,o),
(83,218,q),
(83,221,l),
(83,224,l)
);
},
{
closed = 1;
nodes = (
(302,327,o),
(296,339,qs),
(293,344,o),
(260,349,o),
(251,347,qs),
(229,342,o),
(192,302,q),
(190,304,l),
(188,306,l),
(226,347,o),
(250,353,q),
(257,356,o),
(297,351,o),
(302,342,qs),
(309,327,o),
(288,300,q),
(285,302,l),
(283,304,l)
);
},
{
closed = 1;
nodes = (
(174,275,o),
(165,214,qs),
(162,200,o),
(155,156,o),
(149,117,o),
(146,100,q),
(143,101,l),
(140,101,l),
(143,123,o),
(157,204,o),
(158,215,qs),
(168,277,o),
(187,306,q),
(190,304,l),
(193,302,l)
);
},
{
closed = 1;
nodes = (
(130,55,o),
(67,-8,o),
(24,-8,q),
(24,-4,l),
(24,-1,l),
(64,-1,o),
(124,59,o),
(140,102,q),
(143,101,l),
(146,100,l)
);
},
{
closed = 1;
nodes = (
(13,-8,o),
(12,-7,q),
(0,-1,o),
(0,60,o),
(5,68,q),
(27,130,o),
(96,151,q),
(97,148,l),
(98,145,l),
(31,125,o),
(11,66,q),
(6,57,o),
(7,3,o),
(15,-2,q),
(17,-2,o),
(18,-2,o),
(22,-1,o),
(24,-1,q),
(24,-4,l),
(24,-8,l)
);
},
{
closed = 1;
nodes = (
(111,154,o),
(145,158,o),
(186,160,o),
(197,161,qs),
(235,165,o),
(294,201,q),
(295,199,l),
(297,196,l),
(237,159,o),
(198,155,qs),
(187,154,o),
(158,152,o),
(136,151,o),
(109,147,o),
(98,145,q),
(97,148,l),
(96,151,l)
);
}
);
width = 304;
}
);
note = F;
unicode = 70;
},
{
glyphname = G;
layers = (
{
layerId = m01;
shapes = (
{
closed = 1;
nodes = (
(222,239,o),
(221,246,o),
(221,248,q),
(224,248,l),
(227,249,l),
(228,243,ls),
(228,240,o),
(228,239,q),
(225,238,l),
(222,238,l)
);
},
{
closed = 1;
nodes = (
(221,266,o),
(179,292,o),
(160,291,qs),
(155,291,o),
(149,290,o),
(143,288,o),
(140,286,o),
(132,282,o),
(129,280,q),
(127,283,l),
(126,286,l),
(128,287,o),
(140,294,o),
(144,295,o),
(153,297,o),
(159,297,qs),
(181,298,o),
(227,270,o),
(227,248,q),
(224,248,l),
(221,248,l)
);
},
{
closed = 1;
nodes = (
(114,271,o),
(114,270,q),
(104,265,o),
(92,258,o),
(78,246,o),
(72,231,o),
(72,222,qs),
(72,212,o),
(77,207,qs),
(81,204,o),
(96,195,q),
(95,193,l),
(93,190,l),
(77,199,o),
(73,203,qs),
(66,209,o),
(66,222,qs),
(66,236,o),
(82,258,o),
(97,268,o),
(111,276,qs),
(113,277,o),
(118,280,o),
(124,285,o),
(125,286,q),
(127,283,l),
(129,281,l)
);
},
{
closed = 1;
nodes = (
(156,174,o),
(228,225,qs),
(246,237,o),
(257,251,o),
(261,269,q),
(264,268,l),
(267,268,l),
(263,249,o),
(250,232,o),
(232,220,qs),
(157,167,o),
(94,190,q),
(95,193,l),
(96,196,l)
);
},
{
closed = 1;
nodes = (
(260,283,o),
(224,284,o),
(212,275,q),
(206,272,o),
(196,264,o),
(189,257,o),
(181,244,o),
(176,238,o),
(169,222,o),
(167,217,o),
(160,197,o),
(159,195,q),
(156,196,l),
(153,197,l),
(154,200,o),
(161,218,o),
(164,225,o),
(171,241,o),
(175,248,o),
(184,261,o),
(192,268,o),
(203,277,o),
(209,281,qs),
(215,284,o),
(233,289,o),
(253,290,o),
(267,279,o),
(267,268,q),
(264,268,l),
(260,268,l)
);
},
{
closed = 1;
nodes = (
(146,155,o),
(141,126,qs),
(135,88,o),
(130,61,o),
(109,7,o),
(92,-11,q),
(90,-9,l),
(88,-7,l),
(102,9,o),
(122,55,o),
(129,88,o),
(134,118,qs),
(135,124,o),
(135,127,q),
(140,156,o),
(153,197,q),
(156,196,l),
(159,195,l)
);
},
{
closed = 1;
nodes = (
(71,-33,o),
(48,-43,qs),
(15,-57,o),
(4,-32,qs),
(0,-22,o),
(0,7,q),
(3,7,l),
(6,7,l),
(6,-21,o),
(10,-29,qs),
(18,-49,o),
(45,-37,qs),
(68,-27,o),
(88,-7,q),
(90,-9,l),
(92,-12,l)
);
},
{
closed = 1;
nodes = (
(8,24,o),
(27,47,o),
(54,61,o),
(73,69,o),
(112,80,o),
(121,83,qs),
(136,88,o),
(199,117,q),
(200,115,l),
(202,112,l),
(138,82,o),
(123,77,qs),
(114,74,o),
(75,63,o),
(57,56,o),
(31,42,o),
(13,21,o),
(6,5,q),
(3,7,l),
(0,8,l)
);
},
{
closed = 1;
nodes = (
(236,137,o),
(265,169,q),
(267,167,l),
(270,164,l),
(240,132,o),
(202,112,q),
(200,115,l),
(199,117,l)
);
}
);
width = 270;
}
);
note = G;
unicode = 71;
},
{
glyphname = H;
layers = (
{
layerId = m01;
shapes = (
{
closed = 1;
nodes = (
(121,363,o),
(119,362,o),
(118,362,q),
(117,365,l),
(116,368,l),
(119,369,o),
(120,369,q),
(121,366,l),
(122,363,l)
);
},
{
closed = 1;
nodes = (
(120,353,o),
(110,328,o),
(94,300,o),
(92,293,qs),
(70,236,o),
(68,231,qs),
(64,218,o),
(53,169,o),
(51,160,q),
(48,160,l),
(45,161,l),
(47,170,o),
(58,220,o),
(62,233,qs),
(64,238,o),
(86,295,qs),
(89,304,o),
(105,331,o),
(114,355,o),
(114,365,q),
(117,365,l),
(120,365,l)
);
},
{
closed = 1;
nodes = (
(48,149,o),
(24,62,qs),
(22,56,o),
(16,40,o),
(12,28,o),
(9,13,o),
(9,7,q),
(6,7,l),
(3,7,l),
(3,16,o),
(8,35,o),
(16,58,o),
(18,63,qs),
(42,150,o),
(45,161,q),
(48,160,l),
(51,160,l)
);
},
{
closed = 1;
nodes = (
(-3,4,o),
(1,19,qs),
(1,20,o),
(1,20,q),
(1,35,o),
(5,52,qs),
(18,108,o),
(68,169,q),
(70,167,l),
(73,165,l),
(23,106,o),
(11,51,qs),
(8,34,o),
(8,20,qs),
(8,18,o),
(6,11,o),
(6,7,qs),
(6,4,l)
);
},
{
closed = 1;
nodes = (
(71,171,o),
(89,186,o),
(95,189,q),
(114,202,o),
(128,199,qs),
(149,195,o),
(143,166,qs),
(140,154,o),
(114,101,o),
(113,98,q),
(110,100,l),
(107,101,l),
(109,105,o),
(135,157,o),
(137,167,qs),
(141,190,o),
(127,193,qs),
(115,195,o),
(98,184,qs),
(94,181,o),
(85,174,o),
(76,167,o),
(72,164,q),
(70,167,l),
(68,169,l)
);
},
{
closed = 1;
nodes = (
(93,36,o),
(93,9,qs),
(93,7,o),
(93,-1,o),
(93,-5,o),
(94,-10,o),
(97,-14,o),
(99,-16,q),
(104,-19,o),
(121,-19,q),
(121,-22,l),
(121,-25,l),
(102,-25,o),
(96,-21,qs),
(92,-18,o),
(88,-13,o),
(87,-6,o),
(87,-1,o),
(87,8,o),
(87,9,qs),
(87,37,o),
(107,101,q),
(110,100,l),
(113,99,l)
);
},
{
closed = 1;
nodes = (
(131,-18,o),
(151,-1,o),
(162,15,o),
(170,28,qs),
(248,153,o),
(249,155,q),
(251,153,l),
(254,151,l),
(253,150,o),
(176,25,qs),
(170,16,o),
(165,9,o),
(153,-8,o),
(143,-16,o),
(129,-24,o),
(121,-25,q),
(121,-22,l),
(121,-19,l)
);
}
);
width = 254;
}
);
note = H;
unicode = 72;
},
{
glyphname = I;
layers = (
{
layerId = m01;
shapes = (
{
closed = 1;
nodes = (
(4,113,l),
(6,111,l),
(8,109,l),
(4,105,l),
(2,107,l),
(0,109,l)
);
},
{
closed = 1;
nodes = (
(21,125,o),
(45,145,o),
(68,170,o),
(84,191,o),
(99,211,qs),
(102,215,o),
(113,228,o),
(122,239,o),
(125,245,q),
(127,243,l),
(130,242,l),
(127,236,o),
(118,224,o),
(107,210,o),
(104,207,q),
(76,169,o),
(39,131,o),
(8,108,q),
(6,111,l),
(4,113,l)
);
},
{
closed = 1;
nodes = (
(131,236,o),
(119,211,o),
(98,180,o),
(98,179,q),
(77,142,o),
(77,97,q),
(74,97,l),
(71,97,l),
(71,144,o),
(92,182,qs),
(94,185,o),
(107,205,o),
(116,221,o),
(124,239,o),
(124,243,q),
(127,243,l),
(131,243,l)
);
},
{
closed = 1;
nodes = (
(78,88,o),
(81,82,qs),
(88,67,o),
(107,76,qs),
(114,80,o),
(129,93,o),
(139,103,o),
(155,122,o),
(162,129,o),
(170,137,o),
(178,146,o),
(181,149,qs),
(183,151,o),
(188,157,o),
(194,163,o),
(196,165,q),
(198,163,l),
(200,161,l),
(199,159,o),
(193,152,o),
(188,147,o),
(185,145,q),
(183,142,o),
(167,126,o),
(163,121,qs),
(160,118,o),
(144,99,o),
(134,88,o),
(118,75,o),
(110,71,qs),
(85,58,o),
(76,79,qs),
(72,86,o),
(71,97,q),
(74,97,l),
(77,97,l)
);
},
{
closed = 1;
nodes = (
(168,327,l),
(170,330,l),
(171,333,l),
(178,329,l),
(177,327,l),
(176,324,l)
);
},
{
closed = 1;
nodes = (
(167,327,o),
(145,322,o),
(143,320,q),
(144,319,l),
(148,317,o),
(159,316,o),
(177,317,o),
(179,317,q),
(179,314,l),
(179,311,l),
(178,311,o),
(159,310,o),
(146,311,o),
(141,314,qs),
(134,317,o),
(139,328,o),
(163,333,o),
(170,333,q),
(170,330,l),
(170,327,l)
);
},
{
closed = 1;
nodes = (
(179,317,o),
(182,319,o),
(182,319,q),
(178,319,o),
(173,319,o),
(167,318,o),
(167,318,q),
(167,322,l),
(167,325,l),
(167,325,o),
(177,324,qs),
(198,322,o),
(186,314,q),
(186,314,o),
(181,311,q),
(179,314,l),
(178,317,l)
);
}
);
width = 200;
}
);
note = I;
unicode = 73;
},
{
glyphname = J;
layers = (
{
layerId = m01;
shapes = (
{
closed = 1;
nodes = (
(90,201,l),
(93,201,l),
(96,201,l),
(96,196,l),
(93,196,l),
(90,196,l)
);
},
{
closed = 1;
nodes = (
(106,210,o),
(136,231,o),
(155,248,o),
(189,279,o),
(196,285,qs),
(197,286,o),
(211,299,o),
(220,307,o),
(234,315,o),
(239,315,q),
(239,312,l),
(239,309,l),
(235,309,o),
(223,301,o),
(215,295,o),
(201,282,o),
(200,281,qs),
(193,275,o),
(169,252,o),
(152,236,o),
(129,218,o),
(106,204,o),
(94,198,q),
(93,201,l),
(92,204,l)
);
},
{
closed = 1;
nodes = (
(245,307,o),
(241,298,qs),
(237,290,o),
(215,249,qs),
(207,236,o),
(193,206,o),
(184,179,o),
(173,146,o),
(167,121,o),
(156,85,o),
(153,73,q),
(150,74,l),
(147,74,l),
(150,86,o),
(168,151,o),
(178,183,o),
(198,232,o),
(209,252,qs),
(232,292,o),
(235,300,qs),
(238,307,o),
(236,310,q),
(239,312,l),
(242,313,l)
);
},
{
closed = 1;
nodes = (
(141,38,o),
(136,31,qs),
(119,1,o),
(58,-38,o),
(24,-42,q),
(23,-39,l),
(23,-36,l),
(56,-32,o),
(114,6,o),
(131,34,qs),
(135,41,o),
(147,75,q),
(150,74,l),
(153,73,l)
);
},
{
closed = 1;
nodes = (
(-3,-42,o),
(0,-1,qs),
(2,16,o),
(20,54,o),
(34,75,o),
(49,94,q),
(52,92,l),
(54,90,l),
(40,72,o),
(25,51,o),
(8,15,o),
(7,-1,qs),
(4,-36,o),
(23,-36,q),
(23,-39,l),
(23,-42,l)
);
},
{
closed = 1;
nodes = (
(268,371,l),
(266,374,l),
(265,376,l),
(272,380,l),
(274,377,l),
(275,375,l)
);
},
{
closed = 1;
nodes = (
(269,373,o),
(269,369,o),
(268,365,o),
(268,360,o),
(268,360,q),
(272,358,o),
(279,358,qs),
(285,358,o),
(296,361,o),
(303,366,o),
(303,369,q),
(306,369,l),
(309,369,l),
(309,352,o),
(279,352,qs),
(269,352,o),
(258,358,o),
(263,374,q),
(266,374,l),
(269,374,l)
);
},
{
closed = 1;
nodes = (
(300,371,o),
(271,371,q),
(271,374,l),
(271,377,l),
(272,377,o),
(286,377,o),
(294,377,o),
(305,374,o),
(308,371,q),
(306,369,l),
(304,366,l)
);
}
);
width = 309;
}
);
note = J;
unicode = 74;
},
{
glyphname = K;
layers = (
{
layerId = m01;
shapes = (
{
closed = 1;
nodes = (
(66,364,l),
(63,364,l),
(60,364,l),
(60,371,l),
(63,371,l),
(66,371,l)
);
},
{
closed = 1;
nodes = (
(66,354,o),
(67,316,o),
(67,285,o),
(66,272,qs),
(65,263,o),
(48,160,o),
(48,132,q),
(45,132,l),
(42,132,l),
(42,160,o),
(59,265,o),
(60,272,qs),
(61,292,o),
(61,313,o),
(60,354,o),
(60,364,q),
(63,364,l),
(66,364,l)
);
},
{
closed = 1;
nodes = (
(48,118,o),
(47,64,o),
(47,50,q),
(44,50,l),
(41,50,l),
(41,64,o),
(42,118,o),
(42,132,q),
(45,132,l),
(48,132,l)
);
},
{
closed = 1;
nodes = (
(1,191,o),
(0,191,q),
(3,193,l),
(6,194,l),
(7,193,o),
(10,187,o),
(11,185,q),
(8,184,l),
(5,182,l)
);
},
{
closed = 1;
nodes = (
(0,198,o),
(5,209,o),
(14,219,o),
(22,226,o),
(33,236,o),
(34,237,qs),
(38,240,o),
(55,257,o),
(68,268,o),
(87,285,o),
(105,294,o),
(124,301,o),
(143,299,o),
(152,294,q),
(151,292,l),
(149,289,l),
(142,293,o),
(125,295,o),
(107,288,o),
(91,279,o),
(72,263,o),
(60,253,o),
(42,236,o),
(39,232,q),
(37,231,o),
(28,223,o),
(23,218,o),
(14,210,o),
(10,203,o),
(6,196,o),
(6,193,q),
(3,193,l),
(0,193,l)
);
},
{
closed = 1;
nodes = (
(186,272,o),
(153,239,qs),
(146,232,o),
(131,220,o),
(111,207,o),
(101,201,o),
(73,187,o),
(70,185,q),
(69,188,l),
(67,190,l),
(70,192,o),
(98,207,o),
(107,212,o),
(127,225,o),
(142,236,o),
(148,243,qs),
(164,258,o),
(165,277,o),
(149,289,q),
(151,292,l),
(152,294,l)
);
},
{
closed = 1;
nodes = (
(56,174,o),
(60,172,q),
(58,166,l),
(49,170,o),
(39,170,q),
(51,175,l)
);
},
{
closed = 1;
nodes = (
(41,177,o),
(44,178,q),
(47,180,o),
(56,185,o),
(64,189,o),
(68,191,q),
(70,185,l),
(67,184,o),
(52,176,q),
(39,176,l)
);
},
{
closed = 1;
nodes = (
(27,173,l),
(27,173,o),
(28,173,q),
(30,167,l)
);
},
{
closed = 1;
nodes = (
(83,145,o),
(101,91,qs),
(102,89,o),
(107,75,o),
(108,70,o),
(113,59,o),
(117,54,o),
(122,46,o),
(129,41,o),
(133,39,q),
(132,36,l),
(131,34,l),
(125,36,o),
(116,44,o),
(110,51,o),
(104,65,o),
(102,70,o),
(96,88,o),
(96,89,q),
(78,142,o),
(57,167,q),
(59,169,l),
(61,171,l)
);
},
{
closed = 1;
nodes = (
(140,36,o),
(154,35,o),
(165,39,o),
(176,49,o),
(184,58,o),
(194,74,o),
(199,83,o),
(204,91,q),
(205,95,o),
(206,96,q),
(209,102,o),
(216,114,o),
(224,129,o),
(226,133,q),
(229,132,l),
(231,130,l),
(212,94,o),
(212,93,q),
(211,91,o),
(209,88,qs),
(203,78,o),
(197,67,o),
(185,48,o),
(173,38,o),
(158,28,o),
(140,29,o),
(131,34,q),
(132,36,l),
(133,39,l)
);
}
);
width = 231;
}
);
note = K;
unicode = 75;
},
{
glyphname = L;
layers = (
{
layerId = m01;
shapes = (
{
closed = 1;
nodes = (
(2,82,o),
(2,82,q),
(5,81,l),
(8,80,l),
(8,79,o),
(6,76,o),
(6,75,q),
(3,76,l),
(0,77,l)
);
},
{
closed = 1;
nodes = (
(70,184,o),
(189,288,q),
(191,286,l),
(193,283,l),
(75,179,o),
(8,79,q),
(5,81,l),
(3,83,l)
);
},
{
closed = 1;
nodes = (
(233,328,o),
(247,342,q),
(247,342,o),
(255,350,o),
(263,358,o),
(273,368,o),
(282,373,o),
(284,373,qs),
(289,372,o),
(287,366,q),
(284,367,l),
(279,364,o),
(252,338,qs),
(237,324,o),
(193,283,q),
(191,286,l),
(189,288,l)
);
},
{
closed = 1;
nodes = (
(218,309,o),
(118,198,q),
(116,200,l),
(113,202,l),
(214,313,o),
(282,370,q),
(284,367,l),
(286,365,l)
);
},
{
closed = 1;
nodes = (
(88,157,o),
(74,114,qs),
(59,69,o),
(65,51,qs),
(67,46,o),
(85,22,q),
(82,20,l),
(80,18,l),
(61,43,o),
(59,49,qs),
(53,69,o),
(68,115,qs),
(82,159,o),
(113,202,q),
(116,200,l),
(118,198,l)
);
},
{
closed = 1;
nodes = (
(95,17,o),
(119,18,o),
(138,26,o),
(161,43,o),
(176,58,o),
(198,81,o),
(204,87,qs),
(208,91,o),
(225,104,o),
(229,108,q),
(231,106,l),
(233,104,l),
(229,99,o),
(212,86,o),
(208,83,q),
(203,77,o),
(181,54,o),
(165,38,o),
(141,20,o),
(120,11,o),
(94,11,o),
(81,18,q),
(82,20,l),
(84,23,l)
);
}
);
width = 288;
}
);
note = L;
unicode = 76;
},
{
glyphname = M;
layers = (
{
layerId = m01;
shapes = (
{
closed = 1;
nodes = (
(2,141,o),
(1,146,o),
(0,147,q),
(3,148,l),
(6,149,l),
(6,148,o),
(8,144,o),
(8,143,q),
(6,142,l),
(3,141,ls)
);
},
{
closed = 1;
nodes = (
(0,153,o),
(5,166,o),
(9,173,o),
(19,187,o),
(19,188,q),
(42,226,o),
(80,257,qs),
(104,276,o),
(122,276,q),
(122,273,l),
(122,270,l),
(106,270,o),
(84,252,qs),
(47,222,o),
(24,185,qs),
(6,156,o),
(6,148,q),
(3,148,l),
(0,148,l)
);
},
{
closed = 1;
nodes = (
(125,262,o),
(126,248,o),
(118,226,o),
(113,213,o),
(100,193,o),
(92,181,o),
(79,162,o),
(75,157,qs),
(66,143,o),
(44,107,q),
(42,108,l),
(39,110,l),
(60,147,o),
(70,161,qs),
(73,165,o),
(95,196,o),
(104,211,o),
(118,238,o),
(121,261,o),
(119,273,q),
(122,273,l),
(125,274,l)
);
},
{
closed = 1;
nodes = (
(46,121,q),
(55,134,o),
(94,186,o),
(103,201,q),
(109,197,l),
(101,186,o),
(80,157,o),
(59,129,o),
(52,118,q),
(52,118,o),
(45,109,qs),
(27,86,o),
(27,91,qs),
(27,92,o),
(31,100,q),
(32,100,o),
(39,110,qs),
(46,121,o)
);
},
{
closed = 1;
nodes = (
(141,245,o),
(160,256,qs),
(172,263,o),
(179,261,qs),
(194,257,o),
(183,225,qs),
(179,213,o),
(174,204,q),
(174,204,o),
(163,185,q),
(161,186,l),
(158,188,l),
(159,190,o),
(164,198,o),
(168,204,o),
(169,206,qs),
(173,215,o),
(177,227,qs),
(186,253,o),
(178,255,qs),
(173,257,o),
(163,251,qs),
(145,240,o),
(108,197,q),
(106,199,l),
(104,201,l)
);
},
{
closed = 1;
nodes = (
(150,162,o),
(131,140,q),
(131,140,o),
(130,139,qs),
(120,125,o),
(115,126,qs),
(111,127,o),
(114,136,qs),
(117,142,o),
(119,146,q),
(119,146,o),
(128,160,q),
(131,158,l),
(133,156,l),
(132,155,o),
(129,149,o),
(126,145,o),
(125,143,qs),
(124,142,l),
(125,143,l),
(126,144,ls),
(145,166,o),
(158,188,q),
(161,186,l),
(163,185,l)
);
},
{
closed = 1;
nodes = (
(170,216,o),
(222,258,qs),
(223,259,o),
(234,269,o),
(240,273,o),
(250,278,o),
(253,278,qs),
(263,277,o),
(260,257,q),
(257,257,l),
(254,258,l),
(256,271,o),
(249,272,o),
(226,253,qs),
(174,212,o),
(133,156,q),
(131,158,l),
(128,160,l)
);
},
{
closed = 1;
nodes = (
(258,251,o),
(253,240,o),
(248,231,o),
(242,222,o),
(236,211,o),
(234,207,qs),
(216,174,o),
(203,149,o),
(185,93,o),
(185,71,q),
(182,71,l),
(179,71,l),
(179,93,o),
(194,143,o),
(209,174,o),
(224,201,qs),
(227,207,o),
(228,210,qs),
(231,216,o),
(243,235,o),
(252,251,o),
(254,258,q),
(257,257,l),
(260,256,l)
);
},
{
closed = 1;
nodes = (
(185,69,o),
(183,54,o),
(182,45,o),
(184,35,o),
(186,32,q),
(196,27,o),
(221,37,o),
(229,45,qs),
(242,57,o),
(269,90,o),
(298,125,o),
(310,137,q),
(312,134,l),
(314,132,l),
(301,119,o),
(249,55,o),
(233,40,qs),
(228,35,o),
(212,26,o),
(189,20,o),
(182,28,qs),
(178,32,o),
(176,45,o),
(176,55,o),
(178,70,o),
(179,71,q),
(182,71,l),
(185,71,l)
);
}
);
width = 314;
}
);
note = M;
unicode = 77;
},
{
glyphname = N;
layers = (
{
layerId = m01;
shapes = (
{
closed = 1;
nodes = (
(6,214,o),
(7,217,o),
(7,221,o),
(7,222,q),
(11,221,l),
(14,221,l),
(13,219,o),
(12,212,o),
(12,212,q),
(9,212,l),
(6,213,l)
);
},
{
closed = 1;
nodes = (
(41,256,o),
(58,267,qs),
(65,271,o),
(70,272,qs),
(82,273,o),
(83,254,qs),
(84,247,o),
(83,242,qs),
(82,233,o),
(80,227,q),
(80,226,o),
(74,209,q),
(71,210,l),
(68,211,l),
(69,213,o),
(72,220,o),
(74,226,o),
(74,228,q),
(76,234,o),
(77,243,qs),
(77,247,o),
(77,253,qs),
(76,266,o),
(70,266,q),
(67,265,o),
(62,262,qs),
(45,251,o),
(13,219,q),
(11,221,l),
(8,223,l)
);
},
{
closed = 1;
nodes = (
(66,187,o),
(31,107,o),
(26,94,q),
(25,93,o),
(18,80,o),
(10,65,o),
(3,52,o),
(3,50,q),
(0,50,l),
(0,53,o),
(9,74,o),
(20,95,o),
(20,96,q),
(26,110,o),
(60,189,o),
(68,211,q),
(71,210,l),
(74,209,l)
);
},
{
closed = 1;
nodes = (
(0,58,o),
(4,75,o),
(12,94,o),
(18,105,o),
(30,127,o),
(31,130,q),
(88,235,o),
(148,279,q),
(149,277,l),
(151,274,l),
(93,231,o),
(37,127,qs),
(36,125,o),
(23,101,o),
(18,91,o),
(10,73,o),
(6,57,o),
(6,50,q),
(3,50,l),
(0,50,l)
);
},
{
closed = 1;
nodes = (
(159,287,o),
(164,288,qs),
(169,288,o),
(174,282,o),
(176,274,o),
(177,266,qs),
(180,249,o),
(180,248,qs),
(180,234,o),
(163,194,o),
(137,147,o),
(134,138,q),
(131,139,l),
(128,140,l),
(132,150,o),
(157,197,o),
(174,236,o),
(174,248,qs),
(174,251,o),
(173,256,o),
(171,263,o),
(171,265,qs),
(170,273,o),
(168,280,o),
(167,282,o),
(165,281,q),
(162,281,o),
(151,274,q),
(149,277,l),
(148,280,l)
);
},
{
closed = 1;
nodes = (
(122,97,o),
(131,51,o),
(155,56,qs),
(161,57,o),
(168,60,qs),
(176,64,o),
(198,83,q),
(200,81,l),
(202,79,l),
(179,59,o),
(171,55,qs),
(163,51,o),
(156,50,qs),
(127,43,o),
(121,72,qs),
(115,97,o),
(128,140,q),
(131,139,l),
(134,138,l)
);
},
{
closed = 1;
nodes = (
(213,100,o),
(267,162,q),
(270,160,l),
(272,158,l),
(218,96,o),
(203,79,q),
(200,81,l),
(198,83,l)
);
}
);
width = 272;
}
);
note = N;
unicode = 78;
},
{
glyphname = O;
layers = (
{
layerId = m01;
shapes = (
{
closed = 1;
nodes = (
(214,281,l),
(217,283,l),
(219,285,l),
(227,275,l),
(224,273,l),
(222,271,l)
);
},
{
closed = 1;
nodes = (
(210,282,o),
(179,282,qs),
(144,282,o),
(72,230,o),
(43,193,q),
(41,195,l),
(38,197,l),
(110,289,o),
(179,289,qs),
(211,289,o),
(218,286,q),
(217,283,l),
(215,280,l)
);
},
{
closed = 1;
nodes = (
(25,171,o),
(20,163,qs),
(6,140,o),
(6,101,qs),
(6,98,o),
(6,89,o),
(6,87,o),
(9,82,o),
(12,80,q),
(19,73,o),
(35,72,qs),
(46,71,o),
(71,77,q),
(72,74,l),
(72,71,l),
(47,65,o),
(34,66,qs),
(16,67,o),
(7,75,q),
(5,78,o),
(1,82,o),
(0,88,o),
(0,92,o),
(0,99,o),
(0,101,qs),
(0,141,o),
(14,166,qs),
(20,175,o),
(38,197,q),
(41,195,l),
(43,193,l)
);
},
{
closed = 1;
nodes = (
(116,99,o),
(177,150,o),
(208,192,qs),
(210,195,o),
(226,216,o),
(232,224,o),
(241,241,o),
(244,256,o),
(244,265,q),
(248,265,l),
(251,265,l),
(251,255,o),
(247,239,o),
(237,221,o),
(231,212,o),
(215,191,o),
(213,188,qs),
(182,146,o),
(120,94,o),
(73,71,q),
(72,74,l),
(70,76,l)
);
},
{
closed = 1;
nodes = (
(244,279,o),
(229,289,o),
(212,289,qs),
(166,289,o),
(132,257,q),
(130,260,l),
(128,262,l),
(164,295,o),
(212,295,qs),
(251,295,o),
(251,265,q),
(248,265,l),
(244,265,l)
);
},
{
closed = 1;
nodes = (
(131,256,o),
(126,251,o),
(123,247,o),
(121,245,qs),
(116,238,o),
(114,232,qs),
(110,216,o),
(130,212,qs),
(161,205,o),
(221,223,qs),
(225,224,o),
(227,224,q),
(228,221,l),
(229,218,l),
(228,218,o),
(211,213,o),
(208,212,o),
(192,208,o),
(187,207,o),
(173,204,o),
(166,204,o),
(154,203,o),
(145,203,o),
(134,205,o),
(129,206,qs),
(103,212,o),
(108,233,qs),
(110,241,o),
(116,249,q),
(116,249,o),
(128,262,q),
(130,260,l),
(132,257,l)
);
},
{
closed = 1;
nodes = (
(268,240,o),
(309,272,qs),
(330,288,o),
(333,296,q),
(336,296,l),
(339,295,l),
(335,284,o),
(313,267,qs),
(271,235,o),
(229,218,q),
(228,221,l),
(227,224,l)
);
}
);
width = 339;
}
);
note = O;
unicode = 79;
},
{
glyphname = P;
layers = (
{
layerId = m01;
shapes = (
{
closed = 1;
nodes = (
(109,279,o),
(105,273,q),
(102,274,l),
(100,276,l),
(100,277,o),
(107,288,q),
(110,287,l),
(112,285,l)
);
},
{
closed = 1;
nodes = (
(63,189,o),
(22,26,q),
(19,26,l),
(16,27,l),
(57,191,o),
(99,276,q),
(102,274,l),
(105,273,l)
);
},
{
closed = 1;
nodes = (
(6,-20,o),
(6,-21,q),
(3,-21,o),
(0,-20,q),
(0,-19,l),
(6,-20,l)
);
},
{
closed = 1;
nodes = (
(16,6,o),
(16,6,q),
(15,2,o),
(8,-11,o),
(7,-14,q),
(7,-16,o),
(6,-21,q),
(0,-20,l),
(1,-12,o),
(1,-9,q),
(3,-1,o),
(5,10,qs),
(8,21,o),
(18,64,o),
(20,74,q),
(23,74,l),
(26,73,l),
(24,63,o),
(15,24,o),
(13,16,q),
(13,17,o),
(15,22,o),
(16,26,o),
(16,27,q),
(19,26,l),
(22,26,l)
);
},
{
closed = 1;
nodes = (
(32,111,o),
(53,165,o),
(91,230,o),
(143,271,o),
(176,279,q),
(177,276,l),
(177,273,l),
(152,267,o),
(108,236,o),
(78,198,o),
(51,144,o),
(35,101,o),
(26,73,q),
(23,74,l),
(20,75,l)
);
},
{
closed = 1;
nodes = (
(202,281,o),
(209,280,qs),
(226,277,o),
(222,250,qs),
(220,242,o),
(210,225,o),
(202,216,o),
(183,199,o),
(181,197,q),
(179,199,l),
(177,201,l),
(179,203,o),
(198,221,o),
(205,229,o),
(215,244,o),
(217,259,o),
(213,273,o),
(208,274,qs),
(202,275,o),
(177,273,q),
(177,276,l),
(176,279,l)
);
},
{
closed = 1;
nodes = (
(176,193,o),
(139,167,o),
(122,157,o),
(91,143,o),
(77,140,qs),
(76,140,o),
(62,136,o),
(51,134,o),
(37,134,o),
(34,137,q),
(37,139,l),
(39,142,l),
(41,139,o),
(76,146,qs),
(87,148,o),
(108,156,o),
(130,169,o),
(145,179,o),
(171,197,o),
(177,201,q),
(179,199,l),
(181,196,l)
);
},
{
closed = 1;
nodes = (
(34,144,o),
(35,147,q),
(38,147,l),
(41,146,l),
(40,143,o),
(40,139,q),
(37,139,l),
(34,140,l)
);
}
);
width = 222;
}
);
note = P;
unicode = 80;
},
{
glyphname = Q;
layers = (
{
layerId = m01;
shapes = (
{
closed = 1;
nodes = (
(183,286,o),
(187,294,q),
(189,293,l),
(192,292,l),
(191,290,o),
(188,283,o),
(187,282,q),
(184,283,l),
(182,285,l)
);
},
{
closed = 1;
nodes = (
(206,333,o),
(171,350,qs),
(168,351,o),
(160,353,o),
(151,353,o),
(143,352,o),
(133,352,o),
(130,352,q),
(130,355,l),
(130,358,l),
(132,358,o),
(153,359,o),
(167,358,o),
(173,355,qs),
(194,346,o),
(202,309,o),
(192,292,q),
(189,293,l),
(187,294,l)
);
},
{
closed = 1;
nodes = (
(60,324,o),
(25,268,qs),
(8,241,o),
(7,217,qs),
(7,216,o),
(6,213,q),
(6,207,o),
(10,205,qs),
(14,203,o),
(31,203,q),
(31,200,l),
(31,197,l),
(13,197,o),
(7,200,qs),
(0,203,o),
(0,218,qs),
(1,232,o),
(11,257,o),
(19,271,qs),
(38,301,o),
(93,344,o),
(129,358,q),
(130,355,l),
(131,352,l)
);
},
{
closed = 1;
nodes = (
(93,208,o),
(176,292,qs),
(196,311,o),
(200,320,q),
(203,319,l),
(206,318,l),
(201,307,o),
(180,287,qs),
(96,202,o),
(31,197,q),
(31,200,l),
(31,203,l)
);
},
{
closed = 1;
nodes = (
(200,323,o),
(199,325,q),
(199,325,o),
(196,321,o),
(193,318,o),
(189,314,o),
(188,312,q),
(175,297,o),
(150,264,q),
(150,264,o),
(134,244,q),
(131,246,l),
(129,248,l),
(130,250,o),
(135,256,o),
(139,260,o),
(143,265,o),
(145,268,qs),
(170,301,o),
(183,316,qs),
(184,317,o),
(187,321,o),
(189,324,o),
(193,328,o),
(196,331,o),
(199,333,o),
(202,332,o),
(204,331,q),
(206,328,o),
(206,319,q),
(203,319,l),
(200,319,l)
);
},
{
closed = 1;
nodes = (
(126,233,o),
(102,190,o),
(98,184,qs),
(94,177,o),
(72,142,o),
(62,124,o),
(46,96,o),
(35,70,o),
(31,57,q),
(28,57,l),
(25,58,l),
(30,72,o),
(41,99,o),
(56,127,o),
(67,146,o),
(88,180,o),
(93,187,qs),
(96,193,o),
(121,236,o),
(129,248,q),
(131,246,l),
(134,244,l)
);
},
{
closed = 1;
nodes = (
(18,12,o),
(16,5,q),
(16,-1,o),
(19,-24,o),
(19,-29,q),
(16,-29,l),
(13,-29,l),
(13,-25,o),
(11,-11,o),
(10,-2,o),
(10,6,q),
(12,14,o),
(25,58,q),
(28,57,l),
(31,57,l)
);
},
{
closed = 1;
nodes = (
(19,-27,o),
(23,-28,o),
(26,-27,o),
(28,-25,o),
(31,-22,o),
(33,-19,o),
(37,-14,o),
(38,-13,qs),
(46,-3,o),
(98,64,q),
(100,62,l),
(103,61,l),
(51,-6,o),
(43,-16,qs),
(42,-17,o),
(39,-23,o),
(36,-26,o),
(32,-30,o),
(28,-33,o),
(23,-34,o),
(18,-34,o),
(15,-32,q),
(16,-29,l),
(17,-27,l)
);
},
{
closed = 1;
nodes = (
(118,90,o),
(145,118,qs),
(146,119,o),
(160,127,o),
(161,128,q),
(164,128,l),
(164,127,o),
(162,124,o),
(159,121,o),
(155,118,o),
(152,115,o),
(150,114,o),
(150,114,q),
(123,86,o),
(103,60,q),
(100,62,l),
(98,64,l)
);
}
);
width = 206;
}
);
note = Q;
unicode = 81;
},
{
glyphname = R;
layers = (
{
layerId = m01;
shapes = (
{
closed = 1;
nodes = (
(37,138,l),
(36,141,o),
(35,142,q),
(38,143,l),
(41,144,l),
(43,140,o),
(43,139,q),
(41,138,l),
(38,137,l)
);
},
{
closed = 1;
nodes = (
(30,145,o),
(20,160,o),
(16,170,o),
(10,190,o),
(9,194,q),
(9,194,o),
(6,200,o),
(3,206,o),
(0,214,o),
(0,222,o),
(3,223,q),
(9,229,o),
(27,240,o),
(40,247,o),
(63,258,o),
(68,260,q),
(69,257,l),
(70,254,l),
(66,252,o),
(43,241,o),
(30,235,o),
(13,224,o),
(7,219,qs),
(6,218,o),
(7,215,o),
(9,209,o),
(12,204,o),
(14,198,o),
(15,196,qs),
(16,192,o),
(21,177,o),
(24,168,o),
(28,158,o),
(35,149,o),
(40,146,q),
(38,143,l),
(36,141,l)
);
},
{
closed = 1;
nodes = (
(91,270,o),
(145,285,qs),
(155,288,o),
(171,291,qs),
(173,291,o),
(177,292,o),
(181,293,o),
(182,294,q),
(186,295,ls),
(189,296,o),
(196,295,o),
(195,291,qs),
(194,287,o),
(188,279,o),
(180,271,o),
(172,265,o),
(163,259,o),
(162,257,q),
(160,260,l),
(158,262,l),
(159,263,o),
(175,275,o),
(185,284,o),
(187,289,q),
(184,288,ls),
(182,287,o),
(175,285,o),
(173,285,qs),
(157,282,o),
(147,279,qs),
(93,264,o),
(70,254,q),
(69,257,l),
(68,260,l)
);
},
{
closed = 1;
nodes = (
(138,236,o),
(135,232,qs),
(114,205,o),
(103,131,q),
(98,111,o),
(102,89,o),
(118,77,q),
(116,75,l),
(114,72,l),
(97,85,o),
(92,112,o),
(97,132,q),
(108,208,o),
(130,235,q),
(133,240,o),
(157,262,q),
(160,260,l),
(162,257,l)
);
},
{
closed = 1;
nodes = (
(145,61,o),
(160,65,qs),
(165,67,o),
(176,72,o),
(187,81,o),
(196,89,o),
(208,102,o),
(216,110,o),
(228,125,o),
(233,131,o),
(245,147,o),
(246,149,q),
(249,147,l),
(251,145,l),
(250,144,o),
(234,122,o),
(227,114,o),
(211,94,o),
(200,84,o),
(184,70,o),
(169,62,o),
(162,59,q),
(144,54,o),
(115,72,q),
(116,75,l),
(118,78,l)
);
}
);
width = 251;
}
);
note = R;
unicode = 82;
},
{
glyphname = S;
layers = (
{
layerId = m01;
shapes = (
{
closed = 1;
nodes = (
(5,84,o),
(0,92,q),
(3,93,l),
(5,95,l),
(7,92,o),
(14,81,q),
(12,80,l),
(9,78,l)
);
},
{
closed = 1;
nodes = (
(10,118,o),
(42,161,o),
(85,200,o),
(121,228,o),
(175,268,o),
(188,278,q),
(190,276,l),
(192,273,l),
(179,263,o),
(124,223,o),
(89,195,o),
(46,157,o),
(15,115,o),
(6,92,q),
(3,93,l),
(0,95,l)
);
},
{
closed = 1;
nodes = (
(190,280,o),
(223,302,o),
(244,313,o),
(255,317,qs),
(272,323,o),
(280,320,qs),
(288,317,o),
(297,293,qs),
(309,261,o),
(295,204,q),
(292,205,l),
(289,206,l),
(302,261,o),
(291,291,qs),
(284,312,o),
(278,314,qs),
(274,315,o),
(257,311,q),
(249,308,o),
(230,299,o),
(218,291,o),
(197,276,o),
(192,273,q),
(190,276,l),
(188,278,l)
);
},
{
closed = 1;
nodes = (
(285,169,o),
(278,159,qs),
(255,121,o),
(185,74,o),
(144,74,q),
(144,77,l),
(144,80,l),
(170,80,o),
(220,103,o),
(258,139,o),
(273,162,qs),
(279,172,o),
(289,206,q),
(292,205,l),
(295,204,l)
);
},
{
closed = 1;
nodes = (
(135,79,o),
(128,95,qs),
(117,117,o),
(158,160,o),
(182,167,q),
(183,164,l),
(183,161,l),
(161,154,o),
(125,116,o),
(133,97,qs),
(139,84,o),
(146,80,q),
(144,77,l),
(143,75,l)
);
}
);
width = 303;
}
);
note = S;
unicode = 83;
},
{
glyphname = T;
layers = (
{
layerId = m01;
shapes = (
{
closed = 1;
nodes = (
(204,405,o),
(201,403,q),
(200,406,l),
(198,409,l),
(200,410,o),
(204,412,q),
(206,410,l),
(207,407,l)
);
},
{
closed = 1;
nodes = (
(193,395,o),
(162,366,o),
(142,346,o),
(117,319,o),
(108,306,qs),
(75,261,o),
(47,182,q),
(45,183,l),
(42,184,l),
(70,264,o),
(103,310,qs),
(115,326,o),
(145,358,o),
(189,400,o),
(197,408,q),
(200,406,l),
(202,404,l)
);
},
{
closed = 1;
nodes = (
(28,117,o),
(33,89,qs),
(34,84,o),
(43,72,qs),
(62,47,o),
(93,34,o),
(123,42,q),
(124,39,l),
(125,36,l),
(93,28,o),
(58,43,o),
(38,68,qs),
(28,82,o),
(27,88,qs),
(21,117,o),
(42,184,q),
(45,183,l),
(48,182,l)
);
},
{
closed = 1;
nodes = (
(183,76,o),
(209,145,q),
(212,144,l),
(215,143,l),
(188,72,o),
(125,36,q),
(124,39,l),
(122,42,l)
);
},
{
closed = 1;
nodes = (
(1,250,o),
(5,252,o),
(6,253,q),
(7,250,l),
(8,247,l),
(8,247,o),
(4,245,o),
(2,244,q),
(1,247,l),
(0,250,l)
);
},
{
closed = 1;
nodes = (
(31,253,o),
(139,301,o),
(153,305,q),
(154,302,l),
(154,299,l),
(143,295,o),
(33,247,o),
(7,247,q),
(7,250,l),
(7,253,l)
);
}
);
width = 215;
}
);
note = T;
unicode = 84;
},
{
glyphname = U;
layers = (
{
layerId = m01;
shapes = (
{
closed = 1;
nodes = (
(87,297,o),
(82,294,o),
(81,293,q),
(79,296,l),
(78,298,l),
(79,299,o),
(84,302,o),
(85,303,q),
(87,300,l),
(88,298,l)
);
},
{
closed = 1;
nodes = (
(82,287,o),
(69,263,o),
(48,236,o),
(46,232,qs),
(26,197,o),
(10,132,q),
(7,133,l),
(4,134,l),
(20,199,o),
(41,235,q),
(43,240,o),
(63,267,o),
(76,289,o),
(76,296,q),
(79,296,l),
(82,296,l)
);
},
{
closed = 1;
nodes = (
(6,116,o),
(7,82,o),
(17,71,qs),
(33,54,o),
(44,59,qs),
(47,61,o),
(68,84,q),
(71,82,l),
(73,80,l),
(50,55,o),
(47,54,q),
(32,45,o),
(13,67,qs),
(1,80,o),
(-1,118,o),
(4,134,q),
(7,133,l),
(10,133,l)
);
},
{
closed = 1;
nodes = (
(78,96,o),
(98,127,o),
(111,150,o),
(132,187,o),
(137,197,qs),
(144,208,o),
(173,250,o),
(194,285,o),
(199,301,q),
(202,300,l),
(205,299,l),
(199,282,o),
(178,246,o),
(149,205,o),
(143,194,qs),
(138,186,o),
(107,131,o),
(86,97,o),
(73,80,q),
(71,82,l),
(68,84,l)
);
},
{
closed = 1;
nodes = (
(188,287,o),
(169,247,qs),
(162,232,o),
(130,159,q),
(128,160,l),
(125,162,l),
(156,235,o),
(163,250,qs),
(183,292,o),
(200,303,q),
(202,300,l),
(204,298,l)
);
},
{
closed = 1;
nodes = (
(113,108,o),
(115,86,qs),
(115,70,o),
(124,65,qs),
(128,63,o),
(149,63,q),
(149,60,l),
(149,57,l),
(126,57,o),
(121,60,qs),
(109,67,o),
(108,86,qs),
(108,93,o),
(109,107,o),
(111,117,o),
(115,133,o),
(117,140,o),
(124,159,o),
(125,161,q),
(128,160,l),
(131,159,l)
);
},
{
closed = 1;
nodes = (
(175,85,o),
(224,149,q),
(227,147,l),
(229,145,l),
(179,80,o),
(151,58,q),
(149,60,l),
(147,62,l)
);
}
);
width = 229;
}
);
note = U;
unicode = 85;
},
{
glyphname = V;
layers = (
{
layerId = m01;
shapes = (
{
closed = 1;
nodes = (
(0,273,o),
(1,274,qs),
(2,275,o),
(2,276,q),
(5,274,l),
(8,273,l),
(7,272,o),
(6,270,o),
(5,269,q),
(3,271,l),
(0,272,l)
);
},
{
closed = 1;
nodes = (
(9,278,o),
(17,272,o),
(22,266,o),
(28,254,o),
(30,248,o),
(34,237,o),
(34,237,q),
(42,215,o),
(86,127,o),
(95,102,q),
(92,101,l),
(89,100,l),
(81,124,o),
(36,212,o),
(28,235,qs),
(15,271,o),
(5,271,q),
(5,274,l),
(5,278,l)
);
},
{
closed = 1;
nodes = (
(103,85,o),
(113,69,qs),
(114,68,o),
(115,64,o),
(117,59,o),
(119,56,q),
(122,56,l),
(122,51,o),
(118,52,qs),
(116,53,o),
(108,66,qs),
(98,82,o),
(89,99,q),
(92,101,l),
(95,102,l)
);
},
{
closed = 1;
nodes = (
(116,63,o),
(119,77,o),
(124,93,o),
(128,102,o),
(137,120,o),
(139,123,qs),
(142,130,o),
(173,201,o),
(182,219,qs),
(184,223,o),
(194,237,o),
(196,240,qs),
(199,246,o),
(210,274,o),
(214,281,q),
(217,279,l),
(220,278,l),
(217,272,o),
(211,258,o),
(204,243,o),
(201,237,qs),
(199,234,o),
(194,226,o),
(189,219,o),
(188,216,q),
(178,198,o),
(148,128,o),
(144,121,q),
(143,117,o),
(134,99,o),
(130,90,o),
(125,76,o),
(122,63,o),
(122,56,q),
(119,56,l),
(116,56,l)
);
},
{
closed = 1;
nodes = (
(217,287,o),
(219,289,q),
(221,287,l),
(223,285,l),
(222,284,o),
(220,278,q),
(217,279,l),
(214,281,l)
);
},
{
closed = 1;
nodes = (
(224,286,l),
(221,286,l),
(218,286,l),
(218,287,l),
(221,287,l),
(224,287,l)
);
}
);
width = 224;
}
);
note = V;
unicode = 86;
},
{
glyphname = W;
layers = (
{
layerId = m01;
shapes = (
{
closed = 1;
nodes = (
(0,219,o),
(5,224,q),
(7,222,l),
(10,220,l),
(9,220,o),
(6,215,o),
(5,214,q),
(2,216,l),
(0,218,l)
);
},
{
closed = 1;
nodes = (
(16,234,o),
(55,271,o),
(61,277,q),
(61,277,o),
(71,287,o),
(79,294,o),
(89,301,o),
(93,300,qs),
(100,299,o),
(95,283,qs),
(91,272,o),
(91,272,o),
(85,259,q),
(82,261,l),
(79,262,l),
(80,264,o),
(82,269,o),
(84,273,o),
(85,274,qs),
(86,276,o),
(87,279,o),
(88,284,o),
(89,285,q),
(91,291,o),
(91,294,q),
(88,293,o),
(65,272,qs),
(59,267,o),
(21,229,o),
(9,220,q),
(7,222,l),
(5,225,l)
);
},
{
closed = 1;
nodes = (
(44,162,o),
(40,95,qs),
(40,90,o),
(38,71,o),
(38,66,qs),
(38,55,o),
(48,44,o),
(63,44,q),
(63,41,l),
(63,38,l),
(32,38,o),
(32,66,qs),
(32,71,o),
(34,91,o),
(34,95,qs),
(38,164,o),
(79,262,q),
(82,261,l),
(85,260,l)
);
},
{
closed = 1;
nodes = (
(65,46,o),
(71,49,o),
(76,53,o),
(80,56,o),
(86,61,o),
(88,64,o),
(95,71,o),
(96,73,o),
(103,82,o),
(104,83,qs),
(123,107,o),
(139,127,o),
(162,169,o),
(166,187,q),
(169,186,l),
(172,186,l),
(168,168,o),
(147,128,o),
(130,105,o),
(114,85,qs),
(111,81,o),
(109,79,qs),
(98,66,o),
(92,58,o),
(74,43,o),
(64,39,q),
(63,41,l),
(62,44,l)
);
},
{
closed = 1;
nodes = (
(169,181,o),
(165,173,o),
(162,167,o),
(160,157,o),
(158,151,o),
(157,141,o),
(157,135,o),
(157,124,o),
(157,118,o),
(157,106,o),
(157,103,qs),
(157,67,o),
(177,33,o),
(209,33,q),
(209,30,l),
(209,27,l),
(174,27,o),
(151,66,o),
(151,103,qs),
(151,105,o),
(150,123,o),
(151,128,o),
(151,144,o),
(152,151,o),
(155,164,o),
(158,173,o),
(163,183,o),
(166,188,q),
(169,186,l),
(171,185,l)
);
},
{
closed = 1;
nodes = (
(212,33,o),
(220,32,o),
(224,32,o),
(227,33,q),
(236,38,o),
(249,73,qs),
(270,134,o),
(263,221,q),
(266,221,l),
(270,221,l),
(276,133,o),
(255,71,qs),
(242,33,o),
(229,27,qs),
(226,26,o),
(219,26,o),
(211,27,o),
(209,27,q),
(209,30,l),
(209,33,l)
);
},
{
closed = 1;
nodes = (
(258,262,o),
(255,268,qs),
(254,271,o),
(242,276,o),
(237,276,qs),
(232,277,o),
(232,274,q),
(229,274,l),
(226,274,l),
(226,283,o),
(237,283,qs),
(255,282,o),
(261,271,qs),
(264,264,o),
(267,248,o),
(269,224,o),
(270,222,q),
(266,221,l),
(263,221,l)
);
},
{
closed = 1;
nodes = (
(231,278,o),
(238,277,o),
(243,277,o),
(249,277,o),
(251,277,q),
(267,281,o),
(326,318,o),
(336,322,q),
(337,319,l),
(338,316,l),
(330,313,o),
(270,275,o),
(252,271,q),
(252,271,o),
(229,271,q),
(229,274,l),
(229,278,l)
);
}
);
width = 338;
}
);
note = W;
unicode = 87;
},
{
glyphname = X;
layers = (
{
layerId = m01;
shapes = (
{
closed = 1;
nodes = (
(8,268,o),
(12,269,q),
(12,266,l),
(13,263,l),
(9,262,o),
(5,261,q),
(5,265,l),
(4,268,l)
);
},
{
closed = 1;
nodes = (
(26,269,o),
(53,244,o),
(79,210,o),
(86,205,qs),
(97,198,o),
(145,185,o),
(152,182,qs),
(161,178,o),
(181,167,o),
(204,153,o),
(210,149,q),
(208,147,l),
(207,144,l),
(201,147,o),
(184,158,o),
(172,165,o),
(157,173,o),
(150,176,qs),
(142,179,o),
(115,186,o),
(92,194,o),
(82,200,qs),
(75,205,o),
(27,263,o),
(12,263,q),
(12,266,l),
(12,269,l)
);
},
{
closed = 1;
nodes = (
(230,136,o),
(237,121,q),
(234,119,l),
(231,118,l),
(225,132,o),
(207,144,q),
(208,147,l),
(210,149,l)
);
},
{
closed = 1;
nodes = (
(1,92,o),
(5,94,o),
(6,94,q),
(7,91,l),
(9,88,l),
(7,88,o),
(3,86,o),
(2,86,q),
(1,88,l),
(0,91,l)
);
},
{
closed = 1;
nodes = (
(15,96,o),
(37,113,o),
(52,130,o),
(75,156,o),
(78,160,qs),
(82,165,o),
(97,181,o),
(110,195,o),
(116,201,qs),
(118,203,o),
(210,279,o),
(215,283,qs),
(216,284,o),
(239,303,o),
(250,310,o),
(270,324,o),
(287,332,o),
(296,333,q),
(296,330,l),
(297,327,l),
(290,326,o),
(276,319,o),
(264,313,o),
(247,301,o),
(238,294,o),
(221,280,o),
(219,278,qs),
(216,276,o),
(169,237,o),
(121,198,o),
(120,197,qs),
(112,189,o),
(84,158,o),
(83,156,q),
(79,152,o),
(64,133,o),
(51,118,o),
(34,101,o),
(16,90,o),
(8,88,q),
(7,91,l),
(7,94,l)
);
},
{
closed = 1;
nodes = (
(295,334,o),
(298,335,q),
(298,336,o),
(298,336,q),
(298,337,l),
(300,339,l),
(302,341,l),
(309,334,o),
(298,328,q),
(296,330,l),
(294,332,l)
);
}
);
width = 304;
}
);
note = X;
unicode = 88;
},
{
glyphname = Y;
layers = (
{
layerId = m01;
shapes = (
{
closed = 1;
nodes = (
(86,325,l),
(89,325,l),
(92,325,l),
(92,324,l),
(89,324,l),
(86,324,l)
);
},
{
closed = 1;
nodes = (
(92,310,o),
(78,257,o),
(78,243,qs),
(78,210,o),
(99,202,qs),
(103,200,o),
(117,199,qs),
(132,198,o),
(154,204,q),
(155,201,l),
(156,198,l),
(133,192,o),
(116,193,qs),
(101,194,o),
(97,196,qs),
(71,206,o),
(71,243,qs),
(71,259,o),
(86,312,o),
(86,325,q),
(89,325,l),
(92,325,l)
);
},
{
closed = 1;
nodes = (
(218,228,o),
(230,274,qs),
(237,299,o),
(230,303,q),
(232,305,l),
(234,308,l),
(237,306,o),
(240,300,o),
(241,294,o),
(240,286,o),
(239,281,o),
(236,273,o),
(236,272,q),
(223,224,o),
(156,198,q),
(155,201,l),
(154,204,l)
);
},
{
closed = 1;
nodes = (
(229,302,o),
(224,300,o),
(221,296,o),
(219,292,qs),
(217,289,o),
(216,288,qs),
(199,262,o),
(189,229,qs),
(186,217,o),
(158,110,o),
(133,43,o),
(114,17,q),
(112,19,l),
(109,21,l),
(127,46,o),
(152,111,o),
(180,219,o),
(183,231,qs),
(193,265,o),
(211,291,q),
(211,292,o),
(216,299,o),
(218,302,o),
(223,307,o),
(228,309,o),
(232,309,q),
(232,305,l),
(232,302,l)
);
},
{
closed = 1;
nodes = (
(75,-22,o),
(43,-33,qs),
(32,-37,o),
(25,-38,qs),
(2,-39,o),
(1,-7,qs),
(0,8,o),
(1,11,qs),
(1,12,o),
(4,19,o),
(8,27,o),
(13,35,o),
(18,44,o),
(22,51,o),
(25,56,o),
(25,57,q),
(27,55,l),
(30,54,l),
(8,13,o),
(7,10,qs),
(6,8,o),
(7,-7,qs),
(7,-17,o),
(12,-28,o),
(19,-32,o),
(25,-32,qs),
(31,-31,o),
(41,-28,qs),
(72,-17,o),
(110,21,q),
(112,19,l),
(114,17,l)
);
},
{
closed = 1;
nodes = (
(67,117,o),
(151,172,qs),
(226,221,o),
(263,239,qs),
(275,245,o),
(320,262,o),
(323,262,q),
(324,260,l),
(325,257,l),
(318,254,o),
(294,245,o),
(274,238,o),
(266,233,q),
(229,215,o),
(154,166,qs),
(71,112,o),
(30,53,q),
(27,55,l),
(25,57,l)
);
}
);
width = 325;
}
);
note = Y;
unicode = 89;
},
{
glyphname = Z;
layers = (
{
layerId = m01;
shapes = (
{
closed = 1;
nodes = (
(1,275,o),
(1,277,q),
(4,276,l),
(7,275,l),
(7,274,o),
(6,271,q),
(3,272,l),
(0,273,l)
);
},
{
closed = 1;
nodes = (
(29,279,o),
(93,294,qs),
(225,324,o),
(291,303,q),
(291,300,l),
(290,298,l),
(224,318,o),
(94,288,qs),
(29,273,o),
(4,273,q),
(4,276,l),
(4,279,l)
);
},
{
closed = 1;
nodes = (
(293,303,o),
(308,296,o),
(317,289,o),
(320,285,qs),
(328,274,o),
(311,265,qs),
(298,259,o),
(252,238,o),
(242,233,qs),
(222,223,o),
(179,198,o),
(121,163,o),
(109,155,q),
(107,158,l),
(105,161,l),
(118,168,o),
(175,203,o),
(219,228,o),
(240,239,qs),
(250,244,o),
(296,265,o),
(308,271,qs),
(314,274,o),
(317,277,o),
(315,281,qs),
(313,285,o),
(289,298,q),
(291,300,l),
(292,303,l)
);
},
{
closed = 1;
nodes = (
(85,140,o),
(85,140,q),
(82,139,o),
(70,131,o),
(67,129,qs),
(41,113,o),
(33,98,qs),
(26,86,o),
(30,85,qs),
(33,85,o),
(36,85,o),
(44,85,o),
(46,85,q),
(46,82,l),
(46,79,l),
(29,79,o),
(28,79,qs),
(17,82,o),
(27,101,qs),
(36,118,o),
(63,134,q),
(65,136,o),
(71,139,o),
(75,141,o),
(80,144,o),
(82,146,q),
(82,146,o),
(105,161,q),
(107,158,l),
(109,155,l)
);
},
{
closed = 1;
nodes = (
(68,85,o),
(110,95,o),
(172,117,o),
(183,120,qs),
(239,136,o),
(273,142,qs),
(280,144,o),
(317,147,o),
(327,150,q),
(328,147,l),
(328,144,l),
(318,141,o),
(280,137,o),
(274,136,qs),
(240,130,o),
(185,114,qs),
(175,111,o),
(112,89,o),
(68,79,o),
(46,79,q),
(46,82,l),
(46,85,l)
);
},
{
closed = 1;
nodes = (
(335,152,o),
(338,156,q),
(339,159,l),
(340,162,l),
(347,159,o),
(340,148,o),
(329,144,q),
(328,147,l),
(327,150,l)
);
}
);
width = 344;
}
);
note = Z;
unicode = 90;
},
{
glyphname = "A-lower";
layers = (
{
layerId = m01;
shapes = (
{
closed = 1;
nodes = (
(258,344,o),
(255,345,o),
(252,346,o),
(251,346,q),
(251,349,l),
(252,352,l),
(254,351,o),
(257,351,o),
(260,350,o),
(261,349,q),
(260,346,l),
(259,343,l)
);
},
{
closed = 1;
nodes = (
(250,346,o),
(208,346,o),
(198,345,o),
(168,343,o),
(148,336,o),
(138,331,q),
(136,334,l),
(135,337,l),
(143,341,o),
(159,346,o),
(177,350,o),
(191,352,o),
(211,352,o),
(224,352,o),
(246,352,o),
(251,352,q),
(251,349,l),
(251,346,l)
);
},
{
closed = 1;
nodes = (
(111,317,o),
(45,252,o),
(30,226,qs),
(26,219,o),
(14,190,o),
(10,182,q),
(7,184,l),
(5,185,l),
(8,192,o),
(20,222,o),
(24,229,qs),
(40,256,o),
(107,322,o),
(135,337,q),
(136,334,l),
(138,331,l)
);
},
{
closed = 1;
nodes = (
(7,167,o),
(7,128,qs),
(7,110,o),
(10,107,qs),
(15,101,o),
(40,99,o),
(47,101,qs),
(55,103,o),
(78,117,q),
(79,115,l),
(81,112,l),
(58,98,o),
(49,95,qs),
(19,87,o),
(5,103,q),
(0,107,o),
(0,128,qs),
(0,168,o),
(4,185,q),
(7,184,l),
(10,183,l)
);
},
{
closed = 1;
nodes = (
(132,152,o),
(193,232,qs),
(199,239,o),
(213,260,o),
(227,280,o),
(233,288,q),
(235,286,l),
(238,284,l),
(230,274,o),
(205,236,o),
(198,228,qs),
(136,147,o),
(81,112,q),
(79,115,l),
(77,117,l)
);
},
{
closed = 1;
nodes = (
(234,289,o),
(237,293,o),
(239,296,o),
(242,299,o),
(243,301,qs),
(244,303,o),
(249,309,o),
(252,314,o),
(255,319,o),
(256,326,o),
(258,333,o),
(260,337,q),
(261,338,o),
(263,341,o),
(266,345,o),
(266,346,qs),
(266,349,l),
(266,352,l),
(273,352,o),
(273,346,qs),
(273,344,o),
(265,333,qs),
(263,331,o),
(261,318,o),
(259,314,qs),
(257,310,o),
(248,298,o),
(248,297,q),
(246,295,o),
(243,291,o),
(239,285,o),
(238,284,q),
(235,286,l),
(233,287,l)
);
},
{
closed = 1;
nodes = (
(262,344,o),
(253,337,o),
(247,331,o),
(238,318,o),
(235,313,o),
(225,297,o),
(224,295,qs),
(211,273,o),
(180,230,q),
(177,232,l),
(175,234,l),
(206,276,o),
(219,298,qs),
(220,300,o),
(229,316,o),
(233,322,o),
(242,335,o),
(249,342,o),
(259,349,o),
(265,352,q),
(266,349,l),
(267,346,l)
);
},
{
closed = 1;
nodes = (
(164,202,o),
(148,171,o),
(132,119,o),
(132,97,q),
(129,97,l),
(126,97,l),
(126,120,o),
(143,174,o),
(158,205,o),
(174,234,q),
(177,232,l),
(180,231,l)
);
},
{
closed = 1;
nodes = (
(135,72,o),
(135,71,q),
(140,59,o),
(160,52,o),
(182,58,o),
(193,66,q),
(194,64,l),
(196,61,l),
(185,53,o),
(161,45,o),
(135,53,o),
(130,69,q),
(129,70,o),
(126,97,q),
(129,97,l),
(132,98,l)
);
},
{
closed = 1;
nodes = (
(220,85,o),
(248,118,q),
(250,116,l),
(253,114,l),
(224,80,o),
(196,61,q),
(194,64,l),
(193,66,l)
);
}
);
width = 273;
}
);
note = "A-lower";
unicode = 97;
},
{
glyphname = "B-lower";
layers = (
{
layerId = m01;
shapes = (
{
closed = 1;
nodes = (
(21,356,l),
(18,356,l),
(15,357,l),
(17,367,l),
(20,366,l),
(23,365,l)
);
},
{
closed = 1;
nodes = (
(21,351,o),
(23,338,o),
(26,325,o),
(26,319,qs),
(26,303,o),
(27,237,o),
(29,185,o),
(32,162,q),
(29,162,l),
(26,161,l),
(24,180,o),
(21,223,o),
(21,256,o),
(20,304,o),
(20,319,qs),
(20,324,o),
(15,349,o),
(15,356,q),
(18,356,l),
(21,356,l)
);
},
{
closed = 1;
nodes = (
(36,113,o),
(36,44,q),
(33,44,l),
(30,44,l),
(30,113,o),
(26,161,q),
(29,162,l),
(32,162,l)
);
},
{
closed = 1;
nodes = (
(21,46,o),
(21,82,qs),
(21,115,o),
(33,162,o),
(49,190,q),
(51,189,l),
(54,187,l),
(44,168,o),
(32,137,o),
(27,104,o),
(27,82,qs),
(27,50,o),
(34,47,q),
(33,44,l),
(31,41,l)
);
},
{
closed = 1;
nodes = (
(58,204,o),
(58,205,q),
(64,212,o),
(85,227,qs),
(103,240,o),
(112,245,qs),
(156,271,o),
(176,238,q),
(173,236,l),
(170,234,l),
(154,262,o),
(115,240,qs),
(106,235,o),
(89,222,qs),
(68,207,o),
(62,201,q),
(61,199,o),
(58,195,o),
(55,189,o),
(54,187,q),
(51,189,l),
(49,191,l)
);
},
{
closed = 1;
nodes = (
(196,156,o),
(153,76,q),
(150,77,l),
(148,79,l),
(190,156,o),
(170,235,q),
(173,236,l),
(176,237,l)
);
},
{
closed = 1;
nodes = (
(137,52,o),
(78,5,o),
(53,1,q),
(53,1,o),
(25,1,q),
(25,4,l),
(25,7,l),
(28,7,o),
(41,7,o),
(47,7,o),
(52,7,q),
(75,11,o),
(133,57,o),
(148,79,q),
(150,77,l),
(153,76,l)
);
},
{
closed = 1;
nodes = (
(18,3,o),
(14,7,qs),
(2,16,o),
(-2,44,o),
(8,57,qs),
(11,61,o),
(22,67,o),
(28,70,o),
(43,74,o),
(44,74,q),
(45,71,l),
(46,68,l),
(45,68,o),
(29,64,o),
(24,62,o),
(16,56,o),
(13,53,qs),
(5,43,o),
(8,19,o),
(17,12,qs),
(21,9,o),
(26,7,q),
(25,4,l),
(24,1,l)
);
},
{
closed = 1;
nodes = (
(84,77,o),
(104,68,q),
(102,65,l),
(101,62,l),
(83,71,o),
(45,68,q),
(45,71,l),
(45,74,l)
);
}
);
width = 182;
}
);
note = "B-lower";
unicode = 98;
},
{
glyphname = "C-lower";
layers = (
{
layerId = m01;
shapes = (
{
closed = 1;
nodes = (
(167,271,o),
(163,277,o),
(162,279,q),
(165,281,l),
(168,282,l),
(168,281,o),
(170,277,o),
(172,274,o),
(173,272,q),
(170,271,l),
(167,269,l)
);
},
{
closed = 1;
nodes = (
(162,285,o),
(155,294,qs),
(143,310,o),
(114,318,o),
(94,314,q),
(93,317,l),
(93,320,l),
(114,325,o),
(147,315,o),
(160,297,qs),
(168,287,o),
(168,281,q),
(165,281,l),
(162,281,l)
);
},
{
closed = 1;
nodes = (
(49,297,o),
(7,251,o),
(7,207,q),
(4,207,l),
(1,207,l),
(1,253,o),
(46,303,o),
(92,320,q),
(93,317,l),
(94,314,l)
);
},
{
closed = 1;
nodes = (
(7,205,o),
(6,195,o),
(6,191,o),
(7,187,qs),
(11,171,o),
(42,127,o),
(55,122,qs),
(67,118,o),
(92,118,q),
(92,115,l),
(92,111,l),
(66,111,o),
(52,117,qs),
(42,120,o),
(20,146,o),
(4,175,o),
(1,186,q),
(1,186,o),
(1,207,q),
(4,207,l),
(7,207,l)
);
},
{
closed = 1;
nodes = (
(110,118,o),
(113,119,qs),
(126,123,o),
(164,160,o),
(178,176,q),
(180,174,l),
(182,172,l),
(143,123,o),
(115,113,qs),
(111,111,o),
(92,111,q),
(92,115,l),
(92,118,l)
);
}
);
width = 182;
}
);
note = "C-lower";
unicode = 99;
},
{
glyphname = "D-lower";
layers = (
{
layerId = m01;
shapes = (
{
closed = 1;
nodes = (
(162,175,o),
(163,179,q),
(166,178,l),
(169,177,l),
(167,173,o),
(166,169,q),
(163,170,l),
(160,171,l)
);
},
{
closed = 1;
nodes = (
(163,184,o),
(164,200,o),
(164,209,o),
(163,220,o),
(159,231,o),
(154,238,qs),
(146,251,o),
(129,253,q),
(130,256,l),
(130,259,l),
(150,256,o),
(160,241,qs),
(165,232,o),
(170,215,o),
(170,205,o),
(169,184,o),
(169,178,q),
(166,178,l),
(163,178,l)
);
},
{
closed = 1;
nodes = (
(103,256,o),
(92,254,qs),
(74,251,o),
(40,229,o),
(16,197,o),
(10,180,q),
(7,181,l),
(4,183,l),
(15,211,o),
(63,256,o),
(91,260,qs),
(103,262,o),
(130,259,q),
(130,256,l),
(129,253,l)
);
},
{
closed = 1;
nodes = (
(7,168,o),
(6,161,qs),
(5,148,o),
(14,131,o),
(30,126,o),
(51,125,o),
(64,128,q),
(64,124,l),
(64,121,l),
(48,120,o),
(18,120,o),
(-1,141,o),
(0,162,qs),
(0,165,o),
(1,169,o),
(2,173,o),
(2,175,o),
(4,181,o),
(4,182,q),
(7,181,l),
(10,181,l)
);
},
{
closed = 1;
nodes = (
(86,138,o),
(94,145,qs),
(124,174,o),
(170,281,q),
(173,279,l),
(176,278,l),
(130,170,o),
(98,141,qs),
(89,132,o),
(65,122,q),
(64,124,l),
(63,127,l)
);
},
{
closed = 1;
nodes = (
(174,288,o),
(186,317,o),
(189,324,qs),
(192,330,o),
(201,346,o),
(210,362,o),
(213,368,qs),
(214,370,o),
(219,384,o),
(224,394,o),
(228,398,q),
(230,396,l),
(232,394,l),
(229,391,o),
(225,381,o),
(220,368,o),
(218,365,qs),
(215,358,o),
(198,329,o),
(195,321,q),
(191,315,o),
(180,286,o),
(176,278,q),
(173,279,l),
(170,281,l)
);
},
{
closed = 1;
nodes = (
(233,387,o),
(227,369,o),
(220,357,o),
(208,338,o),
(206,334,qs),
(201,326,o),
(158,254,o),
(147,233,q),
(145,235,l),
(142,236,l),
(152,257,o),
(196,330,o),
(200,337,qs),
(203,341,o),
(215,361,o),
(221,372,o),
(227,388,o),
(227,396,q),
(230,396,l),
(233,396,l)
);
},
{
closed = 1;
nodes = (
(124,178,o),
(119,149,qs),
(113,115,o),
(118,103,qs),
(119,101,o),
(127,90,q),
(125,88,l),
(122,87,l),
(113,98,o),
(112,101,qs),
(107,114,o),
(113,150,qs),
(118,179,o),
(142,236,q),
(145,235,l),
(147,234,l)
);
},
{
closed = 1;
nodes = (
(132,88,o),
(147,88,o),
(160,91,o),
(178,100,o),
(189,106,o),
(209,120,o),
(217,127,o),
(235,142,o),
(237,143,q),
(239,141,l),
(241,138,l),
(239,136,o),
(219,120,o),
(207,111,o),
(186,96,o),
(169,88,o),
(149,81,o),
(131,82,o),
(123,86,q),
(125,88,l),
(126,91,l)
);
}
);
width = 241;
}
);
note = "D-lower";
unicode = 100;
},
{
glyphname = "E-lower";
layers = (
{
layerId = m01;
shapes = (
{
closed = 1;
nodes = (
(13,204,l),
(13,201,l),
(13,198,l),
(9,198,l),
(9,201,l),
(9,204,l)
);
},
{
closed = 1;
nodes = (
(47,204,o),
(128,249,o),
(143,278,q),
(146,277,l),
(148,276,l),
(133,245,o),
(48,198,o),
(13,198,q),
(13,201,l),
(13,204,l)
);
},
{
closed = 1;
nodes = (
(146,297,o),
(145,298,qs),
(141,301,o),
(122,300,qs),
(118,300,o),
(109,298,o),
(102,296,o),
(93,292,o),
(87,289,o),
(78,283,o),
(73,280,o),
(63,273,o),
(61,272,q),
(59,274,l),
(57,277,l),
(59,278,o),
(75,288,o),
(80,292,o),
(94,299,o),
(103,302,o),
(116,306,o),
(122,306,qs),
(144,307,o),
(149,303,qs),
(151,301,o),
(152,292,o),
(151,285,o),
(149,277,o),
(149,276,q),
(146,277,l),
(143,277,l)
);
},
{
closed = 1;
nodes = (
(30,247,o),
(6,206,o),
(6,170,q),
(3,170,l),
(0,170,l),
(0,207,o),
(25,252,o),
(57,277,q),
(59,274,l),
(61,272,l)
);
},
{
closed = 1;
nodes = (
(16,155,o),
(48,155,qs),
(87,155,o),
(93,156,qs),
(105,158,o),
(131,171,o),
(145,180,o),
(177,204,o),
(181,206,q),
(181,206,o),
(218,231,q),
(220,229,l),
(222,226,l),
(218,223,o),
(202,213,o),
(190,205,o),
(185,201,qs),
(180,198,o),
(163,185,o),
(151,177,o),
(134,166,o),
(120,158,o),
(103,151,o),
(94,150,qs),
(87,149,o),
(48,149,qs),
(13,149,o),
(0,169,q),
(3,170,l),
(6,172,l)
);
},
{
closed = 1;
nodes = (
(221,233,o),
(247,247,o),
(264,258,o),
(268,264,q),
(271,262,l),
(273,260,l),
(270,255,o),
(255,244,o),
(242,237,o),
(225,228,o),
(222,226,q),
(220,229,l),
(218,231,l)
);
}
);
width = 273;
}
);
note = "E-lower";
unicode = 101;
},
{
glyphname = "F-lower";
layers = (
{
layerId = m01;
shapes = (
{
closed = 1;
nodes = (
(82,224,o),
(84,224,q),
(83,221,l),
(83,218,l),
(78,219,o),
(73,219,q),
(73,222,l),
(74,225,l)
);
},
{
closed = 1;
nodes = (
(88,224,o),
(101,224,o),
(110,224,o),
(122,224,o),
(126,224,qs),
(165,228,o),
(257,275,o),
(283,304,q),
(285,302,l),
(288,300,l),
(261,270,o),
(167,222,o),
(127,218,q),
(127,218,o),
(83,218,q),
(83,221,l),
(83,224,l)
);
},
{
closed = 1;
nodes = (
(302,327,o),
(296,339,qs),
(293,344,o),
(260,349,o),
(251,347,qs),
(229,342,o),
(192,302,q),
(190,304,l),
(188,306,l),
(226,347,o),
(250,353,q),
(257,356,o),
(297,351,o),
(302,342,qs),
(309,327,o),
(288,300,q),
(285,302,l),
(283,304,l)
);
},
{
closed = 1;
nodes = (
(174,275,o),
(165,214,qs),
(162,200,o),
(155,156,o),
(149,117,o),
(146,100,q),
(143,101,l),
(140,101,l),
(143,123,o),
(157,204,o),
(158,215,qs),
(168,277,o),
(187,306,q),
(190,304,l),
(193,302,l)
);
},
{
closed = 1;
nodes = (
(130,55,o),
(67,-8,o),
(24,-8,q),
(24,-4,l),
(24,-1,l),
(64,-1,o),
(124,59,o),
(140,102,q),
(143,101,l),
(146,100,l)
);
},
{
closed = 1;
nodes = (
(13,-8,o),
(12,-7,q),
(0,-1,o),
(0,60,o),
(5,68,q),
(27,130,o),
(96,151,q),
(97,148,l),
(98,145,l),
(31,125,o),
(11,66,q),
(6,57,o),
(7,3,o),
(15,-2,q),
(17,-2,o),
(18,-2,o),
(22,-1,o),
(24,-1,q),
(24,-4,l),
(24,-8,l)
);
},
{
closed = 1;
nodes = (
(111,154,o),
(145,158,o),
(186,160,o),
(197,161,qs),
(235,165,o),
(294,201,q),
(295,199,l),
(297,196,l),
(237,159,o),
(198,155,qs),
(187,154,o),
(158,152,o),
(136,151,o),
(109,147,o),
(98,145,q),
(97,148,l),
(96,151,l)
);
}
);
width = 304;
}
);
note = "F-lower";
unicode = 102;
},
{
glyphname = "G-lower";
layers = (
{
layerId = m01;
shapes = (
{
closed = 1;
nodes = (
(222,239,o),
(221,246,o),
(221,248,q),
(224,248,l),
(227,249,l),
(228,243,ls),
(228,240,o),
(228,239,q),
(225,238,l),
(222,238,l)
);
},
{
closed = 1;
nodes = (
(221,266,o),
(179,292,o),
(160,291,qs),
(155,291,o),
(149,290,o),
(143,288,o),
(140,286,o),
(132,282,o),
(129,280,q),
(127,283,l),
(126,286,l),
(128,287,o),
(140,294,o),
(144,295,o),
(153,297,o),
(159,297,qs),
(181,298,o),
(227,270,o),
(227,248,q),
(224,248,l),
(221,248,l)
);
},
{
closed = 1;
nodes = (
(114,271,o),
(114,270,q),
(104,265,o),
(92,258,o),
(78,246,o),
(72,231,o),
(72,222,qs),
(72,212,o),
(77,207,qs),
(81,204,o),
(96,195,q),
(95,193,l),
(93,190,l),
(77,199,o),
(73,203,qs),
(66,209,o),
(66,222,qs),
(66,236,o),
(82,258,o),
(97,268,o),
(111,276,qs),
(113,277,o),
(118,280,o),
(124,285,o),
(125,286,q),
(127,283,l),
(129,281,l)
);
},
{
closed = 1;
nodes = (
(156,174,o),
(228,225,qs),
(246,237,o),
(257,251,o),
(261,269,q),
(264,268,l),
(267,268,l),
(263,249,o),
(250,232,o),
(232,220,qs),
(157,167,o),
(94,190,q),
(95,193,l),
(96,196,l)
);
},
{
closed = 1;
nodes = (
(260,283,o),
(224,284,o),
(212,275,q),
(206,272,o),
(196,264,o),
(189,257,o),
(181,244,o),
(176,238,o),
(169,222,o),
(167,217,o),
(160,197,o),
(159,195,q),
(156,196,l),
(153,197,l),
(154,200,o),
(161,218,o),
(164,225,o),
(171,241,o),
(175,248,o),
(184,261,o),
(192,268,o),
(203,277,o),
(209,281,qs),
(215,284,o),
(233,289,o),
(253,290,o),
(267,279,o),
(267,268,q),
(264,268,l),
(260,268,l)
);
},
{
closed = 1;
nodes = (
(146,155,o),
(141,126,qs),
(135,88,o),
(130,61,o),
(109,7,o),
(92,-11,q),
(90,-9,l),
(88,-7,l),
(102,9,o),
(122,55,o),
(129,88,o),
(134,118,qs),
(135,124,o),
(135,127,q),
(140,156,o),
(153,197,q),
(156,196,l),
(159,195,l)
);
},
{
closed = 1;
nodes = (
(71,-33,o),
(48,-43,qs),
(15,-57,o),
(4,-32,qs),
(0,-22,o),
(0,7,q),
(3,7,l),
(6,7,l),
(6,-21,o),
(10,-29,qs),
(18,-49,o),
(45,-37,qs),
(68,-27,o),
(88,-7,q),
(90,-9,l),
(92,-12,l)
);
},
{
closed = 1;
nodes = (
(8,24,o),
(27,47,o),
(54,61,o),
(73,69,o),
(112,80,o),
(121,83,qs),
(136,88,o),
(199,117,q),
(200,115,l),
(202,112,l),
(138,82,o),
(123,77,qs),
(114,74,o),
(75,63,o),
(57,56,o),
(31,42,o),
(13,21,o),
(6,5,q),
(3,7,l),
(0,8,l)
);
},
{
closed = 1;
nodes = (
(236,137,o),
(265,169,q),
(267,167,l),
(270,164,l),
(240,132,o),
(202,112,q),
(200,115,l),
(199,117,l)
);
}
);
width = 270;
}
);
note = "G-lower";
unicode = 103;
},
{
glyphname = "H-lower";
layers = (
{
layerId = m01;
shapes = (
{
closed = 1;
nodes = (
(121,363,o),
(119,362,o),
(118,362,q),
(117,365,l),
(116,368,l),
(119,369,o),
(120,369,q),
(121,366,l),
(122,363,l)
);
},
{
closed = 1;
nodes = (
(120,353,o),
(110,328,o),
(94,300,o),
(92,293,qs),
(70,236,o),
(68,231,qs),
(64,218,o),
(53,169,o),
(51,160,q),
(48,160,l),
(45,161,l),
(47,170,o),
(58,220,o),
(62,233,qs),
(64,238,o),
(86,295,qs),
(89,304,o),
(105,331,o),
(114,355,o),
(114,365,q),
(117,365,l),
(120,365,l)
);
},
{
closed = 1;
nodes = (
(48,149,o),
(24,62,qs),
(22,56,o),
(16,40,o),
(12,28,o),
(9,13,o),
(9,7,q),
(6,7,l),
(3,7,l),
(3,16,o),
(8,35,o),
(16,58,o),
(18,63,qs),
(42,150,o),
(45,161,q),
(48,160,l),
(51,160,l)
);
},
{
closed = 1;
nodes = (
(-3,4,o),
(1,19,qs),
(1,20,o),
(1,20,q),
(1,35,o),
(5,52,qs),
(18,108,o),
(68,169,q),
(70,167,l),
(73,165,l),
(23,106,o),
(11,51,qs),
(8,34,o),
(8,20,qs),
(8,18,o),
(6,11,o),
(6,7,qs),
(6,4,l)
);
},
{
closed = 1;
nodes = (
(71,171,o),
(89,186,o),
(95,189,q),
(114,202,o),
(128,199,qs),
(149,195,o),
(143,166,qs),
(140,154,o),
(114,101,o),
(113,98,q),
(110,100,l),
(107,101,l),
(109,105,o),
(135,157,o),
(137,167,qs),
(141,190,o),
(127,193,qs),
(115,195,o),
(98,184,qs),
(94,181,o),
(85,174,o),
(76,167,o),
(72,164,q),
(70,167,l),
(68,169,l)
);
},
{
closed = 1;
nodes = (
(93,36,o),
(93,9,qs),
(93,7,o),
(93,-1,o),
(93,-5,o),
(94,-10,o),
(97,-14,o),
(99,-16,q),
(104,-19,o),
(121,-19,q),
(121,-22,l),
(121,-25,l),
(102,-25,o),
(96,-21,qs),
(92,-18,o),
(88,-13,o),
(87,-6,o),
(87,-1,o),
(87,8,o),
(87,9,qs),
(87,37,o),
(107,101,q),
(110,100,l),
(113,99,l)
);
},
{
closed = 1;
nodes = (
(131,-18,o),
(151,-1,o),
(162,15,o),
(170,28,qs),
(248,153,o),
(249,155,q),
(251,153,l),
(254,151,l),
(253,150,o),
(176,25,qs),
(170,16,o),
(165,9,o),
(153,-8,o),
(143,-16,o),
(129,-24,o),
(121,-25,q),
(121,-22,l),
(121,-19,l)
);
}
);
width = 254;
}
);
note = "H-lower";
unicode = 104;
},
{
glyphname = "I-lower";
layers = (
{
layerId = m01;
shapes = (
{
closed = 1;
nodes = (
(4,113,l),
(6,111,l),
(8,109,l),
(4,105,l),
(2,107,l),
(0,109,l)
);
},
{
closed = 1;
nodes = (
(21,125,o),
(45,145,o),
(68,170,o),
(84,191,o),
(99,211,qs),
(102,215,o),
(113,228,o),
(122,239,o),
(125,245,q),
(127,243,l),
(130,242,l),
(127,236,o),
(118,224,o),
(107,210,o),
(104,207,q),
(76,169,o),
(39,131,o),
(8,108,q),
(6,111,l),
(4,113,l)
);
},
{
closed = 1;
nodes = (
(131,236,o),
(119,211,o),
(98,180,o),
(98,179,q),
(77,142,o),
(77,97,q),
(74,97,l),
(71,97,l),
(71,144,o),
(92,182,qs),
(94,185,o),
(107,205,o),
(116,221,o),
(124,239,o),
(124,243,q),
(127,243,l),
(131,243,l)
);
},
{
closed = 1;
nodes = (
(78,88,o),
(81,82,qs),
(88,67,o),
(107,76,qs),
(114,80,o),
(129,93,o),
(139,103,o),
(155,122,o),
(162,129,o),
(170,137,o),
(178,146,o),
(181,149,qs),
(183,151,o),
(188,157,o),
(194,163,o),
(196,165,q),
(198,163,l),
(200,161,l),
(199,159,o),
(193,152,o),
(188,147,o),
(185,145,q),
(183,142,o),
(167,126,o),
(163,121,qs),
(160,118,o),
(144,99,o),
(134,88,o),
(118,75,o),
(110,71,qs),
(85,58,o),
(76,79,qs),
(72,86,o),
(71,97,q),
(74,97,l),
(77,97,l)
);
},
{
closed = 1;
nodes = (
(168,327,l),
(170,330,l),
(171,333,l),
(178,329,l),
(177,327,l),
(176,324,l)
);
},
{
closed = 1;
nodes = (
(167,327,o),
(145,322,o),
(143,320,q),
(144,319,l),
(148,317,o),
(159,316,o),
(177,317,o),
(179,317,q),
(179,314,l),
(179,311,l),
(178,311,o),
(159,310,o),
(146,311,o),
(141,314,qs),
(134,317,o),
(139,328,o),
(163,333,o),
(170,333,q),
(170,330,l),
(170,327,l)
);
},
{
closed = 1;
nodes = (
(179,317,o),
(182,319,o),
(182,319,q),
(178,319,o),
(173,319,o),
(167,318,o),
(167,318,q),
(167,322,l),
(167,325,l),
(167,325,o),
(177,324,qs),
(198,322,o),
(186,314,q),
(186,314,o),
(181,311,q),
(179,314,l),
(178,317,l)
);
}
);
width = 200;
}
);
note = "I-lower";
unicode = 105;
},
{
glyphname = "J-lower";
layers = (
{
layerId = m01;
shapes = (
{
closed = 1;
nodes = (
(90,201,l),
(93,201,l),
(96,201,l),
(96,196,l),
(93,196,l),
(90,196,l)
);
},
{
closed = 1;
nodes = (
(106,210,o),
(136,231,o),
(155,248,o),
(189,279,o),
(196,285,qs),
(197,286,o),
(211,299,o),
(220,307,o),
(234,315,o),
(239,315,q),
(239,312,l),
(239,309,l),
(235,309,o),
(223,301,o),
(215,295,o),
(201,282,o),
(200,281,qs),
(193,275,o),
(169,252,o),
(152,236,o),
(129,218,o),
(106,204,o),
(94,198,q),
(93,201,l),
(92,204,l)
);
},
{
closed = 1;
nodes = (
(245,307,o),
(241,298,qs),
(237,290,o),
(215,249,qs),
(207,236,o),
(193,206,o),
(184,179,o),
(173,146,o),
(167,121,o),
(156,85,o),
(153,73,q),
(150,74,l),
(147,74,l),
(150,86,o),
(168,151,o),
(178,183,o),
(198,232,o),
(209,252,qs),
(232,292,o),
(235,300,qs),
(238,307,o),
(236,310,q),
(239,312,l),
(242,313,l)
);
},
{
closed = 1;
nodes = (
(141,38,o),
(136,31,qs),
(119,1,o),
(58,-38,o),
(24,-42,q),
(23,-39,l),
(23,-36,l),
(56,-32,o),
(114,6,o),
(131,34,qs),
(135,41,o),
(147,75,q),
(150,74,l),
(153,73,l)
);
},
{
closed = 1;
nodes = (
(-3,-42,o),
(0,-1,qs),
(2,16,o),
(20,54,o),
(34,75,o),
(49,94,q),
(52,92,l),
(54,90,l),
(40,72,o),
(25,51,o),
(8,15,o),
(7,-1,qs),
(4,-36,o),
(23,-36,q),
(23,-39,l),
(23,-42,l)
);
},
{
closed = 1;
nodes = (
(268,371,l),
(266,374,l),
(265,376,l),
(272,380,l),
(274,377,l),
(275,375,l)
);
},
{
closed = 1;
nodes = (
(269,373,o),
(269,369,o),
(268,365,o),
(268,360,o),
(268,360,q),
(272,358,o),
(279,358,qs),
(285,358,o),
(296,361,o),
(303,366,o),
(303,369,q),
(306,369,l),
(309,369,l),
(309,352,o),
(279,352,qs),
(269,352,o),
(258,358,o),
(263,374,q),
(266,374,l),
(269,374,l)
);
},
{
closed = 1;
nodes = (
(300,371,o),
(271,371,q),
(271,374,l),
(271,377,l),
(272,377,o),
(286,377,o),
(294,377,o),
(305,374,o),
(308,371,q),
(306,369,l),
(304,366,l)
);
}
);
width = 309;
}
);
note = "J-lower";
unicode = 106;
},
{
glyphname = "K-lower";
layers = (
{
layerId = m01;
shapes = (
{
closed = 1;
nodes = (
(66,364,l),
(63,364,l),
(60,364,l),
(60,371,l),
(63,371,l),
(66,371,l)
);
},
{
closed = 1;
nodes = (
(66,354,o),
(67,316,o),
(67,285,o),
(66,272,qs),
(65,263,o),
(48,160,o),
(48,132,q),
(45,132,l),
(42,132,l),
(42,160,o),
(59,265,o),
(60,272,qs),
(61,292,o),
(61,313,o),
(60,354,o),
(60,364,q),
(63,364,l),
(66,364,l)
);
},
{
closed = 1;
nodes = (
(48,118,o),
(47,64,o),
(47,50,q),
(44,50,l),
(41,50,l),
(41,64,o),
(42,118,o),
(42,132,q),
(45,132,l),
(48,132,l)
);
},
{
closed = 1;
nodes = (
(1,191,o),
(0,191,q),
(3,193,l),
(6,194,l),
(7,193,o),
(10,187,o),
(11,185,q),
(8,184,l),
(5,182,l)
);
},
{
closed = 1;
nodes = (
(0,198,o),
(5,209,o),
(14,219,o),
(22,226,o),
(33,236,o),
(34,237,qs),
(38,240,o),
(55,257,o),
(68,268,o),
(87,285,o),
(105,294,o),
(124,301,o),
(143,299,o),
(152,294,q),
(151,292,l),
(149,289,l),
(142,293,o),
(125,295,o),
(107,288,o),
(91,279,o),
(72,263,o),
(60,253,o),
(42,236,o),
(39,232,q),
(37,231,o),
(28,223,o),
(23,218,o),
(14,210,o),
(10,203,o),
(6,196,o),
(6,193,q),
(3,193,l),
(0,193,l)
);
},
{
closed = 1;
nodes = (
(186,272,o),
(153,239,qs),
(146,232,o),
(131,220,o),
(111,207,o),
(101,201,o),
(73,187,o),
(70,185,q),
(69,188,l),
(67,190,l),
(70,192,o),
(98,207,o),
(107,212,o),
(127,225,o),
(142,236,o),
(148,243,qs),
(164,258,o),
(165,277,o),
(149,289,q),
(151,292,l),
(152,294,l)
);
},
{
closed = 1;
nodes = (
(56,174,o),
(60,172,q),
(58,166,l),
(49,170,o),
(39,170,q),
(51,175,l)
);
},
{
closed = 1;
nodes = (
(41,177,o),
(44,178,q),
(47,180,o),
(56,185,o),
(64,189,o),
(68,191,q),
(70,185,l),
(67,184,o),
(52,176,q),
(39,176,l)
);
},
{
closed = 1;
nodes = (
(27,173,l),
(27,173,o),
(28,173,q),
(30,167,l)
);
},
{
closed = 1;
nodes = (
(83,145,o),
(101,91,qs),
(102,89,o),
(107,75,o),
(108,70,o),
(113,59,o),
(117,54,o),
(122,46,o),
(129,41,o),
(133,39,q),
(132,36,l),
(131,34,l),
(125,36,o),
(116,44,o),
(110,51,o),
(104,65,o),
(102,70,o),
(96,88,o),
(96,89,q),
(78,142,o),
(57,167,q),
(59,169,l),
(61,171,l)
);
},
{
closed = 1;
nodes = (
(140,36,o),
(154,35,o),
(165,39,o),
(176,49,o),
(184,58,o),
(194,74,o),
(199,83,o),
(204,91,q),
(205,95,o),
(206,96,q),
(209,102,o),
(216,114,o),
(224,129,o),
(226,133,q),
(229,132,l),
(231,130,l),
(212,94,o),
(212,93,q),
(211,91,o),
(209,88,qs),
(203,78,o),
(197,67,o),
(185,48,o),
(173,38,o),
(158,28,o),
(140,29,o),
(131,34,q),
(132,36,l),
(133,39,l)
);
}
);
width = 231;
}
);
note = "K-lower";
unicode = 107;
},
{
glyphname = "L-lower";
layers = (
{
layerId = m01;
shapes = (
{
closed = 1;
nodes = (
(2,82,o),
(2,82,q),
(5,81,l),
(8,80,l),
(8,79,o),
(6,76,o),
(6,75,q),
(3,76,l),
(0,77,l)
);
},
{
closed = 1;
nodes = (
(70,184,o),
(189,288,q),
(191,286,l),
(193,283,l),
(75,179,o),
(8,79,q),
(5,81,l),
(3,83,l)
);
},
{
closed = 1;
nodes = (
(233,328,o),
(247,342,q),
(247,342,o),
(255,350,o),
(263,358,o),
(273,368,o),
(282,373,o),
(284,373,qs),
(289,372,o),
(287,366,q),
(284,367,l),
(279,364,o),
(252,338,qs),
(237,324,o),
(193,283,q),
(191,286,l),
(189,288,l)
);
},
{
closed = 1;
nodes = (
(218,309,o),
(118,198,q),
(116,200,l),
(113,202,l),
(214,313,o),
(282,370,q),
(284,367,l),
(286,365,l)
);
},
{
closed = 1;
nodes = (
(88,157,o),
(74,114,qs),
(59,69,o),
(65,51,qs),
(67,46,o),
(85,22,q),
(82,20,l),
(80,18,l),
(61,43,o),
(59,49,qs),
(53,69,o),
(68,115,qs),
(82,159,o),
(113,202,q),
(116,200,l),
(118,198,l)
);
},
{
closed = 1;
nodes = (
(95,17,o),
(119,18,o),
(138,26,o),
(161,43,o),
(176,58,o),
(198,81,o),
(204,87,qs),
(208,91,o),
(225,104,o),
(229,108,q),
(231,106,l),
(233,104,l),
(229,99,o),
(212,86,o),
(208,83,q),
(203,77,o),
(181,54,o),
(165,38,o),
(141,20,o),
(120,11,o),
(94,11,o),
(81,18,q),
(82,20,l),
(84,23,l)
);
}
);
width = 288;
}
);
note = "L-lower";
unicode = 108;
},
{
glyphname = "M-lower";
layers = (
{
layerId = m01;
shapes = (
{
closed = 1;
nodes = (
(2,141,o),
(1,146,o),
(0,147,q),
(3,148,l),
(6,149,l),
(6,148,o),
(8,144,o),
(8,143,q),
(6,142,l),
(3,141,ls)
);
},
{
closed = 1;
nodes = (
(0,153,o),
(5,166,o),
(9,173,o),
(19,187,o),
(19,188,q),
(42,226,o),
(80,257,qs),
(104,276,o),
(122,276,q),
(122,273,l),
(122,270,l),
(106,270,o),
(84,252,qs),
(47,222,o),
(24,185,qs),
(6,156,o),
(6,148,q),
(3,148,l),
(0,148,l)
);
},
{
closed = 1;
nodes = (
(125,262,o),
(126,248,o),
(118,226,o),
(113,213,o),
(100,193,o),
(92,181,o),
(79,162,o),
(75,157,qs),
(66,143,o),
(44,107,q),
(42,108,l),
(39,110,l),
(60,147,o),
(70,161,qs),
(73,165,o),
(95,196,o),
(104,211,o),
(118,238,o),
(121,261,o),
(119,273,q),
(122,273,l),
(125,274,l)
);
},
{
closed = 1;
nodes = (
(46,121,q),
(55,134,o),
(94,186,o),
(103,201,q),
(109,197,l),
(101,186,o),
(80,157,o),
(59,129,o),
(52,118,q),
(52,118,o),
(45,109,qs),
(27,86,o),
(27,91,qs),
(27,92,o),
(31,100,q),
(32,100,o),
(39,110,qs),
(46,121,o)
);
},
{
closed = 1;
nodes = (
(141,245,o),
(160,256,qs),
(172,263,o),
(179,261,qs),
(194,257,o),
(183,225,qs),
(179,213,o),
(174,204,q),
(174,204,o),
(163,185,q),
(161,186,l),
(158,188,l),
(159,190,o),
(164,198,o),
(168,204,o),
(169,206,qs),
(173,215,o),
(177,227,qs),
(186,253,o),
(178,255,qs),
(173,257,o),
(163,251,qs),
(145,240,o),
(108,197,q),
(106,199,l),
(104,201,l)
);
},
{
closed = 1;
nodes = (
(150,162,o),
(131,140,q),
(131,140,o),
(130,139,qs),
(120,125,o),
(115,126,qs),
(111,127,o),
(114,136,qs),
(117,142,o),
(119,146,q),
(119,146,o),
(128,160,q),
(131,158,l),
(133,156,l),
(132,155,o),
(129,149,o),
(126,145,o),
(125,143,qs),
(124,142,l),
(125,143,l),
(126,144,ls),
(145,166,o),
(158,188,q),
(161,186,l),
(163,185,l)
);
},
{
closed = 1;
nodes = (
(170,216,o),
(222,258,qs),
(223,259,o),
(234,269,o),
(240,273,o),
(250,278,o),
(253,278,qs),
(263,277,o),
(260,257,q),
(257,257,l),
(254,258,l),
(256,271,o),
(249,272,o),
(226,253,qs),
(174,212,o),
(133,156,q),
(131,158,l),
(128,160,l)
);
},
{
closed = 1;
nodes = (
(258,251,o),
(253,240,o),
(248,231,o),
(242,222,o),
(236,211,o),
(234,207,qs),
(216,174,o),
(203,149,o),
(185,93,o),
(185,71,q),
(182,71,l),
(179,71,l),
(179,93,o),
(194,143,o),
(209,174,o),
(224,201,qs),
(227,207,o),
(228,210,qs),
(231,216,o),
(243,235,o),
(252,251,o),
(254,258,q),
(257,257,l),
(260,256,l)
);
},
{
closed = 1;
nodes = (
(185,69,o),
(183,54,o),
(182,45,o),
(184,35,o),
(186,32,q),
(196,27,o),
(221,37,o),
(229,45,qs),
(242,57,o),
(269,90,o),
(298,125,o),
(310,137,q),
(312,134,l),
(314,132,l),
(301,119,o),
(249,55,o),
(233,40,qs),
(228,35,o),
(212,26,o),
(189,20,o),
(182,28,qs),
(178,32,o),
(176,45,o),
(176,55,o),
(178,70,o),
(179,71,q),
(182,71,l),
(185,71,l)
);
}
);
width = 314;
}
);
note = "M-lower";
unicode = 109;
},
{
glyphname = "N-lower";
layers = (
{
layerId = m01;
shapes = (
{
closed = 1;
nodes = (
(6,214,o),
(7,217,o),
(7,221,o),
(7,222,q),
(11,221,l),
(14,221,l),
(13,219,o),
(12,212,o),
(12,212,q),
(9,212,l),
(6,213,l)
);
},
{
closed = 1;
nodes = (
(41,256,o),
(58,267,qs),
(65,271,o),
(70,272,qs),
(82,273,o),
(83,254,qs),
(84,247,o),
(83,242,qs),
(82,233,o),
(80,227,q),
(80,226,o),
(74,209,q),
(71,210,l),
(68,211,l),
(69,213,o),
(72,220,o),
(74,226,o),
(74,228,q),
(76,234,o),
(77,243,qs),
(77,247,o),
(77,253,qs),
(76,266,o),
(70,266,q),
(67,265,o),
(62,262,qs),
(45,251,o),
(13,219,q),
(11,221,l),
(8,223,l)
);
},
{
closed = 1;
nodes = (
(66,187,o),
(31,107,o),
(26,94,q),
(25,93,o),
(18,80,o),
(10,65,o),
(3,52,o),
(3,50,q),
(0,50,l),
(0,53,o),
(9,74,o),
(20,95,o),
(20,96,q),
(26,110,o),
(60,189,o),
(68,211,q),
(71,210,l),
(74,209,l)
);
},
{
closed = 1;
nodes = (
(0,58,o),
(4,75,o),
(12,94,o),
(18,105,o),
(30,127,o),
(31,130,q),
(88,235,o),
(148,279,q),
(149,277,l),
(151,274,l),
(93,231,o),
(37,127,qs),
(36,125,o),
(23,101,o),
(18,91,o),
(10,73,o),
(6,57,o),
(6,50,q),
(3,50,l),
(0,50,l)
);
},
{
closed = 1;
nodes = (
(159,287,o),
(164,288,qs),
(169,288,o),
(174,282,o),
(176,274,o),
(177,266,qs),
(180,249,o),
(180,248,qs),
(180,234,o),
(163,194,o),
(137,147,o),
(134,138,q),
(131,139,l),
(128,140,l),
(132,150,o),
(157,197,o),
(174,236,o),
(174,248,qs),
(174,251,o),
(173,256,o),
(171,263,o),
(171,265,qs),
(170,273,o),
(168,280,o),
(167,282,o),
(165,281,q),
(162,281,o),
(151,274,q),
(149,277,l),
(148,280,l)
);
},
{
closed = 1;
nodes = (
(122,97,o),
(131,51,o),
(155,56,qs),
(161,57,o),
(168,60,qs),
(176,64,o),
(198,83,q),
(200,81,l),
(202,79,l),
(179,59,o),
(171,55,qs),
(163,51,o),
(156,50,qs),
(127,43,o),
(121,72,qs),
(115,97,o),
(128,140,q),
(131,139,l),
(134,138,l)
);
},
{
closed = 1;
nodes = (
(213,100,o),
(267,162,q),
(270,160,l),
(272,158,l),
(218,96,o),
(203,79,q),
(200,81,l),
(198,83,l)
);
}
);
width = 272;
}
);
note = "N-lower";
unicode = 110;
},
{
glyphname = "O-lower";
layers = (
{
layerId = m01;
shapes = (
{
closed = 1;
nodes = (
(214,281,l),
(217,283,l),
(219,285,l),
(227,275,l),
(224,273,l),
(222,271,l)
);
},
{
closed = 1;
nodes = (
(210,282,o),
(179,282,qs),
(144,282,o),
(72,230,o),
(43,193,q),
(41,195,l),
(38,197,l),
(110,289,o),
(179,289,qs),
(211,289,o),
(218,286,q),
(217,283,l),
(215,280,l)
);
},
{
closed = 1;
nodes = (
(25,171,o),
(20,163,qs),
(6,140,o),
(6,101,qs),
(6,98,o),
(6,89,o),
(6,87,o),
(9,82,o),
(12,80,q),
(19,73,o),
(35,72,qs),
(46,71,o),
(71,77,q),
(72,74,l),
(72,71,l),
(47,65,o),
(34,66,qs),
(16,67,o),
(7,75,q),
(5,78,o),
(1,82,o),
(0,88,o),
(0,92,o),
(0,99,o),
(0,101,qs),
(0,141,o),
(14,166,qs),
(20,175,o),
(38,197,q),
(41,195,l),
(43,193,l)
);
},
{
closed = 1;
nodes = (
(116,99,o),
(177,150,o),
(208,192,qs),
(210,195,o),
(226,216,o),
(232,224,o),
(241,241,o),
(244,256,o),
(244,265,q),
(248,265,l),
(251,265,l),
(251,255,o),
(247,239,o),
(237,221,o),
(231,212,o),
(215,191,o),
(213,188,qs),
(182,146,o),
(120,94,o),
(73,71,q),
(72,74,l),
(70,76,l)
);
},
{
closed = 1;
nodes = (
(244,279,o),
(229,289,o),
(212,289,qs),
(166,289,o),
(132,257,q),
(130,260,l),
(128,262,l),
(164,295,o),
(212,295,qs),
(251,295,o),
(251,265,q),
(248,265,l),
(244,265,l)
);
},
{
closed = 1;
nodes = (
(131,256,o),
(126,251,o),
(123,247,o),
(121,245,qs),
(116,238,o),
(114,232,qs),
(110,216,o),
(130,212,qs),
(161,205,o),
(221,223,qs),
(225,224,o),
(227,224,q),
(228,221,l),
(229,218,l),
(228,218,o),
(211,213,o),
(208,212,o),
(192,208,o),
(187,207,o),
(173,204,o),
(166,204,o),
(154,203,o),
(145,203,o),
(134,205,o),
(129,206,qs),
(103,212,o),
(108,233,qs),
(110,241,o),
(116,249,q),
(116,249,o),
(128,262,q),
(130,260,l),
(132,257,l)
);
},
{
closed = 1;
nodes = (
(268,240,o),
(309,272,qs),
(330,288,o),
(333,296,q),
(336,296,l),
(339,295,l),
(335,284,o),
(313,267,qs),
(271,235,o),
(229,218,q),
(228,221,l),
(227,224,l)
);
}
);
width = 339;
}
);
note = "O-lower";
unicode = 111;
},
{
glyphname = "P-lower";
layers = (
{
layerId = m01;
shapes = (
{
closed = 1;
nodes = (
(109,279,o),
(105,273,q),
(102,274,l),
(100,276,l),
(100,277,o),
(107,288,q),
(110,287,l),
(112,285,l)
);
},
{
closed = 1;
nodes = (
(63,189,o),
(22,26,q),
(19,26,l),
(16,27,l),
(57,191,o),
(99,276,q),
(102,274,l),
(105,273,l)
);
},
{
closed = 1;
nodes = (
(6,-20,o),
(6,-21,q),
(3,-21,o),
(0,-20,q),
(0,-19,l),
(6,-20,l)
);
},
{
closed = 1;
nodes = (
(16,6,o),
(16,6,q),
(15,2,o),
(8,-11,o),
(7,-14,q),
(7,-16,o),
(6,-21,q),
(0,-20,l),
(1,-12,o),
(1,-9,q),
(3,-1,o),
(5,10,qs),
(8,21,o),
(18,64,o),
(20,74,q),
(23,74,l),
(26,73,l),
(24,63,o),
(15,24,o),
(13,16,q),
(13,17,o),
(15,22,o),
(16,26,o),
(16,27,q),
(19,26,l),
(22,26,l)
);
},
{
closed = 1;
nodes = (
(32,111,o),
(53,165,o),
(91,230,o),
(143,271,o),
(176,279,q),
(177,276,l),
(177,273,l),
(152,267,o),
(108,236,o),
(78,198,o),
(51,144,o),
(35,101,o),
(26,73,q),
(23,74,l),
(20,75,l)
);
},
{
closed = 1;
nodes = (
(202,281,o),
(209,280,qs),
(226,277,o),
(222,250,qs),
(220,242,o),
(210,225,o),
(202,216,o),
(183,199,o),
(181,197,q),
(179,199,l),
(177,201,l),
(179,203,o),
(198,221,o),
(205,229,o),
(215,244,o),
(217,259,o),
(213,273,o),
(208,274,qs),
(202,275,o),
(177,273,q),
(177,276,l),
(176,279,l)
);
},
{
closed = 1;
nodes = (
(176,193,o),
(139,167,o),
(122,157,o),
(91,143,o),
(77,140,qs),
(76,140,o),
(62,136,o),
(51,134,o),
(37,134,o),
(34,137,q),
(37,139,l),
(39,142,l),
(41,139,o),
(76,146,qs),
(87,148,o),
(108,156,o),
(130,169,o),
(145,179,o),
(171,197,o),
(177,201,q),
(179,199,l),
(181,196,l)
);
},
{
closed = 1;
nodes = (
(34,144,o),
(35,147,q),
(38,147,l),
(41,146,l),
(40,143,o),
(40,139,q),
(37,139,l),
(34,140,l)
);
}
);
width = 222;
}
);
note = "P-lower";
unicode = 112;
},
{
glyphname = "Q-lower";
layers = (
{
layerId = m01;
shapes = (
{
closed = 1;
nodes = (
(183,286,o),
(187,294,q),
(189,293,l),
(192,292,l),
(191,290,o),
(188,283,o),
(187,282,q),
(184,283,l),
(182,285,l)
);
},
{
closed = 1;
nodes = (
(206,333,o),
(171,350,qs),
(168,351,o),
(160,353,o),
(151,353,o),
(143,352,o),
(133,352,o),
(130,352,q),
(130,355,l),
(130,358,l),
(132,358,o),
(153,359,o),
(167,358,o),
(173,355,qs),
(194,346,o),
(202,309,o),
(192,292,q),
(189,293,l),
(187,294,l)
);
},
{
closed = 1;
nodes = (
(60,324,o),
(25,268,qs),
(8,241,o),
(7,217,qs),
(7,216,o),
(6,213,q),
(6,207,o),
(10,205,qs),
(14,203,o),
(31,203,q),
(31,200,l),
(31,197,l),
(13,197,o),
(7,200,qs),
(0,203,o),
(0,218,qs),
(1,232,o),
(11,257,o),
(19,271,qs),
(38,301,o),
(93,344,o),
(129,358,q),
(130,355,l),
(131,352,l)
);
},
{
closed = 1;
nodes = (
(93,208,o),
(176,292,qs),
(196,311,o),
(200,320,q),
(203,319,l),
(206,318,l),
(201,307,o),
(180,287,qs),
(96,202,o),
(31,197,q),
(31,200,l),
(31,203,l)
);
},
{
closed = 1;
nodes = (
(200,323,o),
(199,325,q),
(199,325,o),
(196,321,o),
(193,318,o),
(189,314,o),
(188,312,q),
(175,297,o),
(150,264,q),
(150,264,o),
(134,244,q),
(131,246,l),
(129,248,l),
(130,250,o),
(135,256,o),
(139,260,o),
(143,265,o),
(145,268,qs),
(170,301,o),
(183,316,qs),
(184,317,o),
(187,321,o),
(189,324,o),
(193,328,o),
(196,331,o),
(199,333,o),
(202,332,o),
(204,331,q),
(206,328,o),
(206,319,q),
(203,319,l),
(200,319,l)
);
},
{
closed = 1;
nodes = (
(126,233,o),
(102,190,o),
(98,184,qs),
(94,177,o),
(72,142,o),
(62,124,o),
(46,96,o),
(35,70,o),
(31,57,q),
(28,57,l),
(25,58,l),
(30,72,o),
(41,99,o),
(56,127,o),
(67,146,o),
(88,180,o),
(93,187,qs),
(96,193,o),
(121,236,o),
(129,248,q),
(131,246,l),
(134,244,l)
);
},
{
closed = 1;
nodes = (
(18,12,o),
(16,5,q),
(16,-1,o),
(19,-24,o),
(19,-29,q),
(16,-29,l),
(13,-29,l),
(13,-25,o),
(11,-11,o),
(10,-2,o),
(10,6,q),
(12,14,o),
(25,58,q),
(28,57,l),
(31,57,l)
);
},
{
closed = 1;
nodes = (
(19,-27,o),
(23,-28,o),
(26,-27,o),
(28,-25,o),
(31,-22,o),
(33,-19,o),
(37,-14,o),
(38,-13,qs),
(46,-3,o),
(98,64,q),
(100,62,l),
(103,61,l),
(51,-6,o),
(43,-16,qs),
(42,-17,o),
(39,-23,o),
(36,-26,o),
(32,-30,o),
(28,-33,o),
(23,-34,o),
(18,-34,o),
(15,-32,q),
(16,-29,l),
(17,-27,l)
);
},
{
closed = 1;
nodes = (
(118,90,o),
(145,118,qs),
(146,119,o),
(160,127,o),
(161,128,q),
(164,128,l),
(164,127,o),
(162,124,o),
(159,121,o),
(155,118,o),
(152,115,o),
(150,114,o),
(150,114,q),
(123,86,o),
(103,60,q),
(100,62,l),
(98,64,l)
);
}
);
width = 206;
}
);
note = "Q-lower";
unicode = 113;
},
{
glyphname = "R-lower";
layers = (
{
layerId = m01;
shapes = (
{
closed = 1;
nodes = (
(37,138,l),
(36,141,o),
(35,142,q),
(38,143,l),
(41,144,l),
(43,140,o),
(43,139,q),
(41,138,l),
(38,137,l)
);
},
{
closed = 1;
nodes = (
(30,145,o),
(20,160,o),
(16,170,o),
(10,190,o),
(9,194,q),
(9,194,o),
(6,200,o),
(3,206,o),
(0,214,o),
(0,222,o),
(3,223,q),
(9,229,o),
(27,240,o),
(40,247,o),
(63,258,o),
(68,260,q),
(69,257,l),
(70,254,l),
(66,252,o),
(43,241,o),
(30,235,o),
(13,224,o),
(7,219,qs),
(6,218,o),
(7,215,o),
(9,209,o),
(12,204,o),
(14,198,o),
(15,196,qs),
(16,192,o),
(21,177,o),
(24,168,o),
(28,158,o),
(35,149,o),
(40,146,q),
(38,143,l),
(36,141,l)
);
},
{
closed = 1;
nodes = (
(91,270,o),
(145,285,qs),
(155,288,o),
(171,291,qs),
(173,291,o),
(177,292,o),
(181,293,o),
(182,294,q),
(186,295,ls),
(189,296,o),
(196,295,o),
(195,291,qs),
(194,287,o),
(188,279,o),
(180,271,o),
(172,265,o),
(163,259,o),
(162,257,q),
(160,260,l),
(158,262,l),
(159,263,o),
(175,275,o),
(185,284,o),
(187,289,q),
(184,288,ls),
(182,287,o),
(175,285,o),
(173,285,qs),
(157,282,o),
(147,279,qs),
(93,264,o),
(70,254,q),
(69,257,l),
(68,260,l)
);
},
{
closed = 1;
nodes = (
(138,236,o),
(135,232,qs),
(114,205,o),
(103,131,q),
(98,111,o),
(102,89,o),
(118,77,q),
(116,75,l),
(114,72,l),
(97,85,o),
(92,112,o),
(97,132,q),
(108,208,o),
(130,235,q),
(133,240,o),
(157,262,q),
(160,260,l),
(162,257,l)
);
},
{
closed = 1;
nodes = (
(145,61,o),
(160,65,qs),
(165,67,o),
(176,72,o),
(187,81,o),
(196,89,o),
(208,102,o),
(216,110,o),
(228,125,o),
(233,131,o),
(245,147,o),
(246,149,q),
(249,147,l),
(251,145,l),
(250,144,o),
(234,122,o),
(227,114,o),
(211,94,o),
(200,84,o),
(184,70,o),
(169,62,o),
(162,59,q),
(144,54,o),
(115,72,q),
(116,75,l),
(118,78,l)
);
}
);
width = 251;
}
);
note = "R-lower";
unicode = 114;
},
{
glyphname = "S-lower";
layers = (
{
layerId = m01;
shapes = (
{
closed = 1;
nodes = (
(5,84,o),
(0,92,q),
(3,93,l),
(5,95,l),
(7,92,o),
(14,81,q),
(12,80,l),
(9,78,l)
);
},
{
closed = 1;
nodes = (
(10,118,o),
(42,161,o),
(85,200,o),
(121,228,o),
(175,268,o),
(188,278,q),
(190,276,l),
(192,273,l),
(179,263,o),
(124,223,o),
(89,195,o),
(46,157,o),
(15,115,o),
(6,92,q),
(3,93,l),
(0,95,l)
);
},
{
closed = 1;
nodes = (
(190,280,o),
(223,302,o),
(244,313,o),
(255,317,qs),
(272,323,o),
(280,320,qs),
(288,317,o),
(297,293,qs),
(309,261,o),
(295,204,q),
(292,205,l),
(289,206,l),
(302,261,o),
(291,291,qs),
(284,312,o),
(278,314,qs),
(274,315,o),
(257,311,q),
(249,308,o),
(230,299,o),
(218,291,o),
(197,276,o),
(192,273,q),
(190,276,l),
(188,278,l)
);
},
{
closed = 1;
nodes = (
(285,169,o),
(278,159,qs),
(255,121,o),
(185,74,o),
(144,74,q),
(144,77,l),
(144,80,l),
(170,80,o),
(220,103,o),
(258,139,o),
(273,162,qs),
(279,172,o),
(289,206,q),
(292,205,l),
(295,204,l)
);
},
{
closed = 1;
nodes = (
(135,79,o),
(128,95,qs),
(117,117,o),
(158,160,o),
(182,167,q),
(183,164,l),
(183,161,l),
(161,154,o),
(125,116,o),
(133,97,qs),
(139,84,o),
(146,80,q),
(144,77,l),
(143,75,l)
);
}
);
width = 303;
}
);
note = "S-lower";
unicode = 115;
},
{
glyphname = "T-lower";
layers = (
{
layerId = m01;
shapes = (
{
closed = 1;
nodes = (
(204,405,o),
(201,403,q),
(200,406,l),
(198,409,l),
(200,410,o),
(204,412,q),
(206,410,l),
(207,407,l)
);
},
{
closed = 1;
nodes = (
(193,395,o),
(162,366,o),
(142,346,o),
(117,319,o),
(108,306,qs),
(75,261,o),
(47,182,q),
(45,183,l),
(42,184,l),
(70,264,o),
(103,310,qs),
(115,326,o),
(145,358,o),
(189,400,o),
(197,408,q),
(200,406,l),
(202,404,l)
);
},
{
closed = 1;
nodes = (
(28,117,o),
(33,89,qs),
(34,84,o),
(43,72,qs),
(62,47,o),
(93,34,o),
(123,42,q),
(124,39,l),
(125,36,l),
(93,28,o),
(58,43,o),
(38,68,qs),
(28,82,o),
(27,88,qs),
(21,117,o),
(42,184,q),
(45,183,l),
(48,182,l)
);
},
{
closed = 1;
nodes = (
(183,76,o),
(209,145,q),
(212,144,l),
(215,143,l),
(188,72,o),
(125,36,q),
(124,39,l),
(122,42,l)
);
},
{
closed = 1;
nodes = (
(1,250,o),
(5,252,o),
(6,253,q),
(7,250,l),
(8,247,l),
(8,247,o),
(4,245,o),
(2,244,q),
(1,247,l),
(0,250,l)
);
},
{
closed = 1;
nodes = (
(31,253,o),
(139,301,o),
(153,305,q),
(154,302,l),
(154,299,l),
(143,295,o),
(33,247,o),
(7,247,q),
(7,250,l),
(7,253,l)
);
}
);
width = 215;
}
);
note = "T-lower";
unicode = 116;
},
{
glyphname = "U-lower";
layers = (
{
layerId = m01;
shapes = (
{
closed = 1;
nodes = (
(87,297,o),
(82,294,o),
(81,293,q),
(79,296,l),
(78,298,l),
(79,299,o),
(84,302,o),
(85,303,q),
(87,300,l),
(88,298,l)
);
},
{
closed = 1;
nodes = (
(82,287,o),
(69,263,o),
(48,236,o),
(46,232,qs),
(26,197,o),
(10,132,q),
(7,133,l),
(4,134,l),
(20,199,o),
(41,235,q),
(43,240,o),
(63,267,o),
(76,289,o),
(76,296,q),
(79,296,l),
(82,296,l)
);
},
{
closed = 1;
nodes = (
(6,116,o),
(7,82,o),
(17,71,qs),
(33,54,o),
(44,59,qs),
(47,61,o),
(68,84,q),
(71,82,l),
(73,80,l),
(50,55,o),
(47,54,q),
(32,45,o),
(13,67,qs),
(1,80,o),
(-1,118,o),
(4,134,q),
(7,133,l),
(10,133,l)
);
},
{
closed = 1;
nodes = (
(78,96,o),
(98,127,o),
(111,150,o),
(132,187,o),
(137,197,qs),
(144,208,o),
(173,250,o),
(194,285,o),
(199,301,q),
(202,300,l),
(205,299,l),
(199,282,o),
(178,246,o),
(149,205,o),
(143,194,qs),
(138,186,o),
(107,131,o),
(86,97,o),
(73,80,q),
(71,82,l),
(68,84,l)
);
},
{
closed = 1;
nodes = (
(188,287,o),
(169,247,qs),
(162,232,o),
(130,159,q),
(128,160,l),
(125,162,l),
(156,235,o),
(163,250,qs),
(183,292,o),
(200,303,q),
(202,300,l),
(204,298,l)
);
},
{
closed = 1;
nodes = (
(113,108,o),
(115,86,qs),
(115,70,o),
(124,65,qs),
(128,63,o),
(149,63,q),
(149,60,l),
(149,57,l),
(126,57,o),
(121,60,qs),
(109,67,o),
(108,86,qs),
(108,93,o),
(109,107,o),
(111,117,o),
(115,133,o),
(117,140,o),
(124,159,o),
(125,161,q),
(128,160,l),
(131,159,l)
);
},
{
closed = 1;
nodes = (
(175,85,o),
(224,149,q),
(227,147,l),
(229,145,l),
(179,80,o),
(151,58,q),
(149,60,l),
(147,62,l)
);
}
);
width = 229;
}
);
note = "U-lower";
unicode = 117;
},
{
glyphname = "V-lower";
layers = (
{
layerId = m01;
shapes = (
{
closed = 1;
nodes = (
(0,273,o),
(1,274,qs),
(2,275,o),
(2,276,q),
(5,274,l),
(8,273,l),
(7,272,o),
(6,270,o),
(5,269,q),
(3,271,l),
(0,272,l)
);
},
{
closed = 1;
nodes = (
(9,278,o),
(17,272,o),
(22,266,o),
(28,254,o),
(30,248,o),
(34,237,o),
(34,237,q),
(42,215,o),
(86,127,o),
(95,102,q),
(92,101,l),
(89,100,l),
(81,124,o),
(36,212,o),
(28,235,qs),
(15,271,o),
(5,271,q),
(5,274,l),
(5,278,l)
);
},
{
closed = 1;
nodes = (
(103,85,o),
(113,69,qs),
(114,68,o),
(115,64,o),
(117,59,o),
(119,56,q),
(122,56,l),
(122,51,o),
(118,52,qs),
(116,53,o),
(108,66,qs),
(98,82,o),
(89,99,q),
(92,101,l),
(95,102,l)
);
},
{
closed = 1;
nodes = (
(116,63,o),
(119,77,o),
(124,93,o),
(128,102,o),
(137,120,o),
(139,123,qs),
(142,130,o),
(173,201,o),
(182,219,qs),
(184,223,o),
(194,237,o),
(196,240,qs),
(199,246,o),
(210,274,o),
(214,281,q),
(217,279,l),
(220,278,l),
(217,272,o),
(211,258,o),
(204,243,o),
(201,237,qs),
(199,234,o),
(194,226,o),
(189,219,o),
(188,216,q),
(178,198,o),
(148,128,o),
(144,121,q),
(143,117,o),
(134,99,o),
(130,90,o),
(125,76,o),
(122,63,o),
(122,56,q),
(119,56,l),
(116,56,l)
);
},
{
closed = 1;
nodes = (
(217,287,o),
(219,289,q),
(221,287,l),
(223,285,l),
(222,284,o),
(220,278,q),
(217,279,l),
(214,281,l)
);
},
{
closed = 1;
nodes = (
(224,286,l),
(221,286,l),
(218,286,l),
(218,287,l),
(221,287,l),
(224,287,l)
);
}
);
width = 224;
}
);
note = "V-lower";
unicode = 118;
},
{
glyphname = "W-lower";
layers = (
{
layerId = m01;
shapes = (
{
closed = 1;
nodes = (
(0,219,o),
(5,224,q),
(7,222,l),
(10,220,l),
(9,220,o),
(6,215,o),
(5,214,q),
(2,216,l),
(0,218,l)
);
},
{
closed = 1;
nodes = (
(16,234,o),
(55,271,o),
(61,277,q),
(61,277,o),
(71,287,o),
(79,294,o),
(89,301,o),
(93,300,qs),
(100,299,o),
(95,283,qs),
(91,272,o),
(91,272,o),
(85,259,q),
(82,261,l),
(79,262,l),
(80,264,o),
(82,269,o),
(84,273,o),
(85,274,qs),
(86,276,o),
(87,279,o),
(88,284,o),
(89,285,q),
(91,291,o),
(91,294,q),
(88,293,o),
(65,272,qs),
(59,267,o),
(21,229,o),
(9,220,q),
(7,222,l),
(5,225,l)
);
},
{
closed = 1;
nodes = (
(44,162,o),
(40,95,qs),
(40,90,o),
(38,71,o),
(38,66,qs),
(38,55,o),
(48,44,o),
(63,44,q),
(63,41,l),
(63,38,l),
(32,38,o),
(32,66,qs),
(32,71,o),
(34,91,o),
(34,95,qs),
(38,164,o),
(79,262,q),
(82,261,l),
(85,260,l)
);
},
{
closed = 1;
nodes = (
(65,46,o),
(71,49,o),
(76,53,o),
(80,56,o),
(86,61,o),
(88,64,o),
(95,71,o),
(96,73,o),
(103,82,o),
(104,83,qs),
(123,107,o),
(139,127,o),
(162,169,o),
(166,187,q),
(169,186,l),
(172,186,l),
(168,168,o),
(147,128,o),
(130,105,o),
(114,85,qs),
(111,81,o),
(109,79,qs),
(98,66,o),
(92,58,o),
(74,43,o),
(64,39,q),
(63,41,l),
(62,44,l)
);
},
{
closed = 1;
nodes = (
(169,181,o),
(165,173,o),
(162,167,o),
(160,157,o),
(158,151,o),
(157,141,o),
(157,135,o),
(157,124,o),
(157,118,o),
(157,106,o),
(157,103,qs),
(157,67,o),
(177,33,o),
(209,33,q),
(209,30,l),
(209,27,l),
(174,27,o),
(151,66,o),
(151,103,qs),
(151,105,o),
(150,123,o),
(151,128,o),
(151,144,o),
(152,151,o),
(155,164,o),
(158,173,o),
(163,183,o),
(166,188,q),
(169,186,l),
(171,185,l)
);
},
{
closed = 1;
nodes = (
(212,33,o),
(220,32,o),
(224,32,o),
(227,33,q),
(236,38,o),
(249,73,qs),
(270,134,o),
(263,221,q),
(266,221,l),
(270,221,l),
(276,133,o),
(255,71,qs),
(242,33,o),
(229,27,qs),
(226,26,o),
(219,26,o),
(211,27,o),
(209,27,q),
(209,30,l),
(209,33,l)
);
},
{
closed = 1;
nodes = (
(258,262,o),
(255,268,qs),
(254,271,o),
(242,276,o),
(237,276,qs),
(232,277,o),
(232,274,q),
(229,274,l),
(226,274,l),
(226,283,o),
(237,283,qs),
(255,282,o),
(261,271,qs),
(264,264,o),
(267,248,o),
(269,224,o),
(270,222,q),
(266,221,l),
(263,221,l)
);
},
{
closed = 1;
nodes = (
(231,278,o),
(238,277,o),
(243,277,o),
(249,277,o),
(251,277,q),
(267,281,o),
(326,318,o),
(336,322,q),
(337,319,l),
(338,316,l),
(330,313,o),
(270,275,o),
(252,271,q),
(252,271,o),
(229,271,q),
(229,274,l),
(229,278,l)
);
}
);
width = 338;
}
);
note = "W-lower";
unicode = 119;
},
{
glyphname = "X-lower";
layers = (
{
layerId = m01;
shapes = (
{
closed = 1;
nodes = (
(8,268,o),
(12,269,q),
(12,266,l),
(13,263,l),
(9,262,o),
(5,261,q),
(5,265,l),
(4,268,l)
);
},
{
closed = 1;
nodes = (
(26,269,o),
(53,244,o),
(79,210,o),
(86,205,qs),
(97,198,o),
(145,185,o),
(152,182,qs),
(161,178,o),
(181,167,o),
(204,153,o),
(210,149,q),
(208,147,l),
(207,144,l),
(201,147,o),
(184,158,o),
(172,165,o),
(157,173,o),
(150,176,qs),
(142,179,o),
(115,186,o),
(92,194,o),
(82,200,qs),
(75,205,o),
(27,263,o),
(12,263,q),
(12,266,l),
(12,269,l)
);
},
{
closed = 1;
nodes = (
(230,136,o),
(237,121,q),
(234,119,l),
(231,118,l),
(225,132,o),
(207,144,q),
(208,147,l),
(210,149,l)
);
},
{
closed = 1;
nodes = (
(1,92,o),
(5,94,o),
(6,94,q),
(7,91,l),
(9,88,l),
(7,88,o),
(3,86,o),
(2,86,q),
(1,88,l),
(0,91,l)
);
},
{
closed = 1;
nodes = (
(15,96,o),
(37,113,o),
(52,130,o),
(75,156,o),
(78,160,qs),
(82,165,o),
(97,181,o),
(110,195,o),
(116,201,qs),
(118,203,o),
(210,279,o),
(215,283,qs),
(216,284,o),
(239,303,o),
(250,310,o),
(270,324,o),
(287,332,o),
(296,333,q),
(296,330,l),
(297,327,l),
(290,326,o),
(276,319,o),
(264,313,o),
(247,301,o),
(238,294,o),
(221,280,o),
(219,278,qs),
(216,276,o),
(169,237,o),
(121,198,o),
(120,197,qs),
(112,189,o),
(84,158,o),
(83,156,q),
(79,152,o),
(64,133,o),
(51,118,o),
(34,101,o),
(16,90,o),
(8,88,q),
(7,91,l),
(7,94,l)
);
},
{
closed = 1;
nodes = (
(295,334,o),
(298,335,q),
(298,336,o),
(298,336,q),
(298,337,l),
(300,339,l),
(302,341,l),
(309,334,o),
(298,328,q),
(296,330,l),
(294,332,l)
);
}
);
width = 304;
}
);
note = "X-lower";
unicode = 120;
},
{
glyphname = "Y-lower";
layers = (
{
layerId = m01;
shapes = (
{
closed = 1;
nodes = (
(86,325,l),
(89,325,l),
(92,325,l),
(92,324,l),
(89,324,l),
(86,324,l)
);
},
{
closed = 1;
nodes = (
(92,310,o),
(78,257,o),
(78,243,qs),
(78,210,o),
(99,202,qs),
(103,200,o),
(117,199,qs),
(132,198,o),
(154,204,q),
(155,201,l),
(156,198,l),
(133,192,o),
(116,193,qs),
(101,194,o),
(97,196,qs),
(71,206,o),
(71,243,qs),
(71,259,o),
(86,312,o),
(86,325,q),
(89,325,l),
(92,325,l)
);
},
{
closed = 1;
nodes = (
(218,228,o),
(230,274,qs),
(237,299,o),
(230,303,q),
(232,305,l),
(234,308,l),
(237,306,o),
(240,300,o),
(241,294,o),
(240,286,o),
(239,281,o),
(236,273,o),
(236,272,q),
(223,224,o),
(156,198,q),
(155,201,l),
(154,204,l)
);
},
{
closed = 1;
nodes = (
(229,302,o),
(224,300,o),
(221,296,o),
(219,292,qs),
(217,289,o),
(216,288,qs),
(199,262,o),
(189,229,qs),
(186,217,o),
(158,110,o),
(133,43,o),
(114,17,q),
(112,19,l),
(109,21,l),
(127,46,o),
(152,111,o),
(180,219,o),
(183,231,qs),
(193,265,o),
(211,291,q),
(211,292,o),
(216,299,o),
(218,302,o),
(223,307,o),
(228,309,o),
(232,309,q),
(232,305,l),
(232,302,l)
);
},
{
closed = 1;
nodes = (
(75,-22,o),
(43,-33,qs),
(32,-37,o),
(25,-38,qs),
(2,-39,o),
(1,-7,qs),
(0,8,o),
(1,11,qs),
(1,12,o),
(4,19,o),
(8,27,o),
(13,35,o),
(18,44,o),
(22,51,o),
(25,56,o),
(25,57,q),
(27,55,l),
(30,54,l),
(8,13,o),
(7,10,qs),
(6,8,o),
(7,-7,qs),
(7,-17,o),
(12,-28,o),
(19,-32,o),
(25,-32,qs),
(31,-31,o),
(41,-28,qs),
(72,-17,o),
(110,21,q),
(112,19,l),
(114,17,l)
);
},
{
closed = 1;
nodes = (
(67,117,o),
(151,172,qs),
(226,221,o),
(263,239,qs),
(275,245,o),
(320,262,o),
(323,262,q),
(324,260,l),
(325,257,l),
(318,254,o),
(294,245,o),
(274,238,o),
(266,233,q),
(229,215,o),
(154,166,qs),
(71,112,o),
(30,53,q),
(27,55,l),
(25,57,l)
);
}
);
width = 325;
}
);
note = "Y-lower";
unicode = 121;
},
{
glyphname = "Z-lower";
layers = (
{
layerId = m01;
shapes = (
{
closed = 1;
nodes = (
(1,275,o),
(1,277,q),
(4,276,l),
(7,275,l),
(7,274,o),
(6,271,q),
(3,272,l),
(0,273,l)
);
},
{
closed = 1;
nodes = (
(29,279,o),
(93,294,qs),
(225,324,o),
(291,303,q),
(291,300,l),
(290,298,l),
(224,318,o),
(94,288,qs),
(29,273,o),
(4,273,q),
(4,276,l),
(4,279,l)
);
},
{
closed = 1;
nodes = (
(293,303,o),
(308,296,o),
(317,289,o),
(320,285,qs),
(328,274,o),
(311,265,qs),
(298,259,o),
(252,238,o),
(242,233,qs),
(222,223,o),
(179,198,o),
(121,163,o),
(109,155,q),
(107,158,l),
(105,161,l),
(118,168,o),
(175,203,o),
(219,228,o),
(240,239,qs),
(250,244,o),
(296,265,o),
(308,271,qs),
(314,274,o),
(317,277,o),
(315,281,qs),
(313,285,o),
(289,298,q),
(291,300,l),
(292,303,l)
);
},
{
closed = 1;
nodes = (
(85,140,o),
(85,140,q),
(82,139,o),
(70,131,o),
(67,129,qs),
(41,113,o),
(33,98,qs),
(26,86,o),
(30,85,qs),
(33,85,o),
(36,85,o),
(44,85,o),
(46,85,q),
(46,82,l),
(46,79,l),
(29,79,o),
(28,79,qs),
(17,82,o),
(27,101,qs),
(36,118,o),
(63,134,q),
(65,136,o),
(71,139,o),
(75,141,o),
(80,144,o),
(82,146,q),
(82,146,o),
(105,161,q),
(107,158,l),
(109,155,l)
);
},
{
closed = 1;
nodes = (
(68,85,o),
(110,95,o),
(172,117,o),
(183,120,qs),
(239,136,o),
(273,142,qs),
(280,144,o),
(317,147,o),
(327,150,q),
(328,147,l),
(328,144,l),
(318,141,o),
(280,137,o),
(274,136,qs),
(240,130,o),
(185,114,qs),
(175,111,o),
(112,89,o),
(68,79,o),
(46,79,q),
(46,82,l),
(46,85,l)
);
},
{
closed = 1;
nodes = (
(335,152,o),
(338,156,q),
(339,159,l),
(340,162,l),
(347,159,o),
(340,148,o),
(329,144,q),
(328,147,l),
(327,150,l)
);
}
